<svg xmlns="http://www.w3.org/2000/svg" id="Capa_2" data-name="Capa 2" viewBox="0 0 802.3 334.61"><g id="CONTENIDO"><g><g><g><path d="M177.62,298.81l-.11.02c-4.15,1.25-6.44,5.02-5.57,9.18.83,3.96,4.11,6.56,8.03,6.56.43,0,.87-.03,1.32-.1,2.27-.33,4.18-1.48,5.38-3.23,1.17-1.7,1.54-3.85,1.04-6.05-1.05-4.61-6.07-7.03-10.08-6.4ZM184.42,307.45c-.18,1.51-1.33,3.21-3.47,3.6-1.34.25-2.7-.22-3.53-.74-1.24-.78-2.04-2.02-2.19-3.42-.14-1.31.31-2.54,1.27-3.48.8-.79,1.8-1.1,2.79-1.1,1.06,0,2.12.36,2.94.9.94.62,2.47,1.99,2.19,4.23Z"></path><path d="M203.86,257.05c-.81-.65-2.46-1.31-3.4-1.46-2.14-.35-4.36.19-6.08,1.48-1.71,1.29-2.78,3.15-3.03,5.26-.46,3.98,2.32,7.71,6.46,8.68.64.15,1.28.22,1.91.22,2.53,0,4.88-1.17,6.32-3.22,2.46-3.53,1.58-7.93-2.2-10.96ZM202.77,266.55c-2.04,2.06-4.63,1.33-6.23.09-1.08-.84-1.71-2-1.78-3.25-.06-1.2.43-2.36,1.37-3.26.85-.81,1.89-1.23,2.97-1.23.55,0,1.12.11,1.67.34,1.34.55,2.54,1.79,2.92,3.01.38,1.24.19,3.17-.92,4.29Z"></path><path d="M177.1,270.63c-.33-2.09-1.46-3.94-3.18-5.18-1.72-1.25-3.82-1.75-5.91-1.42-2.09.33-3.94,1.46-5.18,3.18-1.25,1.72-1.75,3.81-1.42,5.91.62,3.91,4,6.7,7.84,6.7.41,0,.83-.03,1.25-.1,4.32-.68,7.29-4.76,6.6-9.08ZM172.86,274.52c-.7.96-1.73,1.59-2.9,1.78-1.18.19-2.35-.1-3.31-.8-.96-.7-1.59-1.73-1.78-2.9-.19-1.17.1-2.35.8-3.31.7-.96,1.73-1.59,2.9-1.78.24-.04.47-.06.71-.06.93,0,1.84.29,2.61.85.96.7,1.59,1.73,1.78,2.9.19,1.17-.1,2.35-.8,3.31Z"></path><path d="M216.7,288.26c-2.23.18-4.51,1.51-5.95,3.46-1.22,1.66-1.67,3.58-1.26,5.4.52,2.33,2.06,4.32,4.21,5.46,1.22.65,2.57.98,3.91.98,1.01,0,2.03-.19,2.99-.56,3.84-1.51,5.72-5.5,4.37-9.29-1.27-3.56-4.6-5.76-8.28-5.45ZM220.46,299.11c-1.08.87-2.61,1.19-4,.84-1.98-.5-3.92-2.22-3.52-4.83.17-1.09.91-2.13,2-2.79.71-.43,1.49-.65,2.27-.65.44,0,.87.07,1.28.21.78.26,3.32,1.32,3.41,3.93.06,1.71-.76,2.73-1.45,3.29Z"></path><path d="M127.73,146.01c.51-.4.92-.71,1.35-1l1.52-1.03c-3.39,10.95-2.69,26.31,1.78,37.78,4.11,10.54,12.48,21.28,24.01,21.28.75,0,1.52-.05,2.29-.14,1.91-.23,3.78-.8,5.58-1.36l1.86-.56c.45-.14.71-.59.61-1.05-.13-.55-.99-1.22-1.63-1.12l-3.37.54c-1.94.31-5.05.44-6.79,0,.54-.69,1.4-1.67,1.6-1.86,1.96-1.83,4.5-3.34,8.01-4.73l7.71-3.06c1.08-.43,3.13-1.82,3.76-2.93.59-1.06.72-2.23.37-3.4-.46-1.53-1.77-3-3.4-3.83l-3.65-1.86c-.39-.2-1.13-1.37-1.32-2.24-.19-.87.07-1.11,2.28-2.13,1.24-.57,2.78-1.28,4.54-2.5,1.48-1.03,4.62-5.19,3.82-7.13-.15-.36-.64-1.17-2.13-.92-6.81,1.15-10.97,1.77-17.35,1.11-5.59-.58-13.31-2.61-18.38-8.98-3.91-4.91-3.87-11.55-3.44-12.89l6.8-.51-2.01-1.34c-4.88-3.24-11.23-1.11-14.98,2.69l-2.19,2.22,1.76,1.7.99-.76ZM168.93,187.36l-6.89,2.65c-2.51.96-4.86,2.36-7.19,4.27-1.58,1.3-2.35,2.57-2.91,3.5-.68,1.12-.68,1.11-1.29.81-2.51-1.26-7.59-4.63-7.94-6.33-.04-.18,0-.26.06-.32,2.35-2.83,3.71-3.82,6.86-5.56,2.78-1.53,6.38-2.5,9.94-2.5s6.98.93,9.62,3.17c.02.01.03.03.05.05-.12.12-.25.24-.31.27ZM170.62,182.19c1.75.85,2.31,1.11,2.55,2.74-.15.25-.71.67-1.04.79l-1.98-1.79c-5.17-4.68-14.25-3.7-20.46-1.44-4.1,1.49-6.91,4.23-9.27,7.09-1.75-2.52-3.28-5.36-4.68-8.66-.69-1.62-2.5-7.02-2.51-8.69l3.77.88,5.41.99,11.27,1.64c3.77.55,7.84.01,10.99-.53.05.22.09.5.12.73.2,1.29.48,3.06,1.81,3.97,1.67,1.15,3.03,1.8,4.02,2.28ZM133.93,145.05c0,.06,0,.11,0,.17.04.81.1,1.83.34,3.08,1.72,8.81,7.76,14.78,17.98,17.76,4.45,1.3,10.47,1.83,15.34,1.36l4.01-.39c.42-.04,1.14-.19,1.92-.35.14-.03.28-.06.42-.09l.23.27c-5.36,4.93-14.64,6.2-21.21,5.25l-7.12-1.02-3.03-.46-8.51-1.41c-.38-.06-1.45-.74-1.65-1.08-1.26-6.38-1.06-16.47,1.27-23.09Z"></path><path d="M134.31,122.26l4.54.17h0c.6.02,1.19.06,1.78.09.9.06,1.84.11,2.77.12h.2s.1-.01.1-.01c6.73,0,11.99-4.84,11.99-11.02,0-6.77-3.32-10.8-8.89-10.8-6.01,0-10.59,4.14-11.65,10.55-.37,2.22-.1,5.35,1.64,7.83-1.67.27-2.96.72-4.04,1.42l-1.87,1.21,2.36.33c.45.06.81.11,1.06.12ZM138.25,111.87h0c.37-2.22,1.34-4.21,2.73-5.61,1.51-1.51,3.52-2.31,5.81-2.31,1.9,0,3.3.63,4.26,1.92-2.24-.06-4.02,2.2-4.02,4.97,0,2.74,1.77,4.97,3.95,4.97.08,0,.16,0,.24,0-1.56,2.26-4.36,3.68-7.53,3.68-1.71,0-3.07-.58-4.03-1.72-1.21-1.43-1.77-3.75-1.41-5.9Z"></path><path d="M109.03,132.54c-1.92.4-3.7,1.83-4.65,3.73-.81,1.61-.89,3.29-.22,4.74l.64,1.38.81-1.29c.39-.62.64-1.32.87-2,.46-1.34.88-2.55,2.39-3.22-1.83,2.5-3.24,5.79-1.24,10.08l.12.25,4.08,2.15-1.44-2.48c-1.8-3.11-1.51-5.92.86-8.35.25-.26,1.11-.7,1.9-.99l2.24-.8-.77-.91c-1.51-1.78-3.71-2.68-5.6-2.28Z"></path><path d="M28.34,163.66l.3.24c.63.49,1.56,1.2,2.39,1.67h0c6.98,3.89,11.21,7.69,12.16,15.58l.76,6.26,2.33-1.24.03-.46c.51-8.18-1.71-14.37-6.59-18.4-2.88-2.37-6.06-4.69-9.83-5.62-.34-.25-.68-.3-1-.15-.62.28-.6.93-.57,1.74v.39Z"></path><path d="M300.62,115.15c-4.74-2.19-11.87-2.97-17.65,1.42-2.87,2.18-3.51,5.87-1.51,8.78,2.5,3.64,7.56,5.93,13.53,6.13.19,0,.37,0,.57,0,3.24,0,7.63-.89,10.12-3.45,1.34-1.37,1.96-3.02,1.85-4.92-.17-3.02-2.82-6.08-6.92-7.97ZM303.9,124.29h0c-1.61,3.31-6.23,4.07-10.01,3.68-5.1-.53-9.47-3.01-10.16-5.77-.27-1.09.7-2.55,1.75-3.18,2.09-1.25,4.78-1.94,7.53-1.94,3.87,0,7.84,1.36,10.33,4.41.49.59.78,2.34.56,2.8Z"></path><path d="M328.53,113.84c1.28,0,2.55-.2,3.73-.63,2.93-1.05,4.38-3.94,3.45-6.87-.77-2.42-2.62-4.31-5.21-5.33-3.11-1.22-6.71-.97-9.62.67-1.31.74-2.23,1.92-2.58,3.32-.35,1.39-.1,2.85.7,4.12,1.85,2.93,5.72,4.71,9.53,4.71ZM321.66,106.11c.06-.5.29-.94.62-1.18,1.07-.79,2.46-1.2,3.92-1.2.62,0,1.26.08,1.89.23,1.88.46,3.41,1.54,4.08,2.91.31.63.35,1.29.11,1.85-.23.55-.73.96-1.39,1.17-3.3,1.02-6.73.01-8.96-2.64-.22-.27-.33-.69-.27-1.15Z"></path><path d="M327.34,124.9c-1.05-.57-2.17-.87-3.28-.93l.12-1.18c.25-2.52-.79-4.86-3.01-6.78-3.24-2.79-8.85-4.31-12.5-3.39l-.24.06-.17.18c-.24.25-.86.93-.44,1.61.4.65,1.23.47,1.81.3,3.09.3,10.11,1.53,12.25,6.59l1.11,2.62c-1.07.1-2.11.44-3.06,1.03-.94.59-1.57,1.58-1.67,2.64-.1,1,.25,1.95,1,2.67,1.4,1.34,3.18,2.04,5.03,2.04,1.05,0,2.12-.22,3.15-.68,1.02-.45,1.86-1.72,2.4-2.63l.2-.34-.14-.37c-.64-1.72-1.49-2.85-2.59-3.45ZM326.01,128.59c-1.15.48-2.95.19-3.99-.42,0-.15,0-.36.03-.52,1.12-.28,2.86-.15,3.91.32.05.16.07.44.05.62Z"></path><path d="M269.69,107.74c.15,0,.3,0,.45,0,5.03-.1,11.22-2.05,12.93-6.09,1.14-2.7.35-5.94-2.02-8.24-3.11-3.01-7.49-4.5-12.03-4.07-4.21.39-7.88,2.4-10.07,5.49-1.54,2.18-1.89,5.12-.86,7.3,1.66,3.53,5.97,5.61,11.6,5.61ZM260.88,98.91c.29-1.71,1.96-3.49,3.47-4.36,4.56-2.64,11.28-2.57,15.29,2.66.93,1.21.71,3.15-.45,4.07-5.27,4.18-13.99,4.21-17.6.06-.63-.73-.87-1.52-.72-2.42Z"></path><path d="M295.39,98.05c-2.02-1.12-4.94-1.25-6.96-.3-.74.35-1.61,1.48-1.73,2.24-.13.83.5,2.31,1.17,2.78,1.48,1.04,3.24,1.48,4.84,1.48,1.29,0,2.49-.29,3.34-.8,1.04-.62,1.58-1.54,1.46-2.53-.13-1.16-.89-2.18-2.13-2.87Z"></path><path d="M285.83,89.84l1.21,2,.13.1c2.66,1.98,5.82,2.96,9.56,2.96,1.98,0,4.12-.27,6.44-.82l.42-.1.53-1.32h0s0,0,0,0l.02-.06h0s.49-1.22.49-1.22l-.84.1-.06-.07-.47.07c-.11.02-.2.05-.28.1-6.49.74-10.81.92-14.9-2.29l-.19-.82c-.11-.46-.55-.75-1.04-.67-.01,0-1.48.39-1.38,1.3l.08.78h.29Z"></path><path d="M265.83,109.03c-.95-.07-2.35.06-2.97.22l-2.68.71,3.03,1c.41.13,1.28.41,1.62.6-.08.17-.25.48-.64,1.01l-1.33,1.83,2.19-.53c.69-.17,1.92-.56,2.47-1.34.46-.64.14-1.56-.09-2.04-.2-.42-.74-1.39-1.61-1.46Z"></path><path d="M385.1,88.14c1.39.98,2.78,1.46,4.18,1.46,1.3,0,2.62-.42,3.97-1.25l.37-.23.2-3.66-.41-.26c-3.17-2.03-6.33-2.11-8.68-.23-.49.39-.74,1.04-.71,1.82.03.81.37,1.85,1.07,2.35ZM390.23,86.07s0,.06,0,.09c-.71.02-1.7-.04-2.39-.14v-.06s2.4.1,2.4.1Z"></path><path d="M404.03,105.45c-1.87-.67-3.57-.4-4.28.21-.32.27-.46.64-.38,1,.07.36.33.63.72.76l2.62.85c-.02.15-.05.32-.08.45-.88.19-2.45.15-3.1-.31-.31-.22-.67-1-.95-1.68h0s0-.01,0-.01c0,0,0,0,0,0,.28-.36.41-.75-.02-1.16-.41-.39-.73-.31-1.15.06l-.02-.02-.48.51c-.05.05-.1.11-.15.16l-.14.15-.06.19c-.5,1.77-.43,2.92.21,3.41,1.67,1.28,3.4,1.92,4.98,1.92,1.49,0,2.84-.58,3.87-1.73.51-.57.67-1.43.43-2.35-.29-1.12-1.07-2.07-2-2.4Z"></path><path d="M400.58,98.96c.98,0,2-.18,3.03-.55,1.46-.52,2.66-1.86,3.3-3.67l.29-.82-2.21-.67-.31.64c-.79,1.62-2.4,2.04-3.29,2.14-1.78.2-3.62-.45-4.59-1.63-.23-.29-.33-.59-.29-.91.06-.47.4-.99.93-1.4.18-.09.29-.24.35-.36l.38-.73-1.19-.63h0s-.28-.15-.28-.15c-.23-.12-.86-.33-1.58.45-.94,1.01-1.73,3.27-.74,4.86,1.38,2.23,3.65,3.44,6.2,3.44Z"></path><path d="M385.88,105.61c.17-.18.67-.56.98-.73l2.54,2.31.25-1.5c.06-.34.01-2.21-.85-2.71-.72-.42-2.53-.57-3.33-.13l-2.42,1.31,2.27,2.05.56-.59Z"></path><path d="M367.64,130.46c3.65,0,7.32-.87,10.07-2.47,2-1.16,3.46-3.07,3.91-5.1.36-1.64.04-3.24-.94-4.62-2.54-3.61-7.8-5.58-14.06-5.29-5.62.26-10.36,2.37-12.08,5.36-1.31,2.29-.9,5.24,1.05,7.53,2.7,3.16,7.36,4.59,12.04,4.59ZM357.35,120.55c.71-1.48,3.07-2.88,4.94-3.39,4.86-1.31,11.39-1.05,15.02,2.49.87.85,1.33,2.37.48,3.52-.71.95-1.96,1.96-2.98,2.41-3.29,1.44-8.79,2.05-12.96.41-2.22-.87-3.76-2.26-4.57-4.11-.18-.42-.16-.86.07-1.34Z"></path><path d="M385.1,122.37l.42.23,1.84-1.12c.52-.31,1.96-.32,3.39-.04v.27s-2.3.42-2.3.42c-.28.05-1.16.4-1.39,1.03-.12.32-.06.66.15.93.57.69,1.26.95,2.04.95,1.01,0,2.17-.43,3.36-.88.6-.23,1.04-.82,1.22-1.67.2-.91.11-2.18-.55-2.83-2.16-2.15-5.81-1.9-7.86-.32-.6.46-.85,1.7-.81,2.2.04.51.33.74.49.83Z"></path><path d="M356.57,134.24c.31,0,.63-.01.94-.04l5.75-.5-.19-2.49-6.48.11s-.06,0-.09,0c-1.89,0-3.84-.93-4.95-1.86l-1.9-1.59-3.22-2.22,1.06,2.58c1.53,3.72,5.03,6.01,9.08,6.01Z"></path><path d="M319.15,75.71c-.21-2.89-2.39-5.25-5.98-6.5-4.87-1.68-12-1.13-15.52,2.72-.99,1.08-1.47,2.51-1.36,4.01.12,1.6.89,3.1,2.13,4.12,2.63,2.15,6.24,3.24,9.78,3.24,3.21,0,6.35-.9,8.63-2.71,1.42-1.13,2.44-3.27,2.32-4.88ZM315.51,76.67c-1.56,2.12-4.56,3.28-8.04,3.09-3.51-.19-6.58-1.68-7.82-3.82-.19-.33-.12-.73.21-1.2.94-1.34,3.91-2.89,7.9-2.89.9,0,1.86.08,2.85.26,2.19.4,4.43,1.88,5,3.32.26.64.07,1.02-.1,1.24Z"></path><path d="M324.23,82.29l-2.88-.85c-.6-.18-1.13.29-1.45.68-.03-.04-.06-.09-.09-.13-.57-.71-1.61-.23-2.06-.03l-.3.13-.95,2.26c-.56,1.33,1.24,3.03,1.89,3.39,1.11.61,2.24.91,3.33.91,1.38,0,2.68-.48,3.76-1.44.65-.57.89-1.55.65-2.6-.26-1.15-.99-2.04-1.91-2.31ZM319.62,84.99c-.16-.23-.23-.9-.13-1.15.04-.06.09-.13.14-.2.05.07.12.13.18.18.25.19.66.44,1.05.58l2.04.73s.01.03.02.04c-.81.58-1.52.46-3.31-.19Z"></path><path d="M290.76,71.55l-.84-.44c-.8-.42-2.68-.24-3.2.68-.27.48-.37,1.19-.48,2.01l-.15,1.07,1.08.25s.03,0,.05.01l.26.06h0c.37.03.85-.01.99-.62,0,0,.01-.06.02-.15.36-.62.66-.77,1.56-.91.36-.06,1.06-.46,1.15-1.05.06-.38-.13-.75-.47-.93Z"></path><path d="M359.74,69.11c-4.84.3-9.2,2.59-11.64,6.1l-.12.17-.02.21c-.18,1.7-.26,3.25-.26,5.02v.26s.15.21.15.21c1.75,2.53,4.38,4.13,7.62,4.63.77.12,1.55.17,2.33.17,4.58,0,9.14-1.92,11.95-4.1,1.37-1.06,2.24-2.63,2.39-4.29.15-1.64-.39-3.22-1.52-4.47-2.5-2.77-6.46-4.19-10.88-3.92ZM368.52,77.84c-3.12,4.11-10.97,5.87-15.54,3.48-1.18-.61-1.85-1.75-2.05-3.48,2.3-4.99,9.23-6.28,14.35-4.34,1.65.62,3.04,1.91,3.39,3.14.14.49.09.89-.15,1.21Z"></path><path d="M338.34,75.06c1.22,0,2.38-.53,3.74-1.4l.39-.25-.04-1.67s.03,0,.04-.01l.91-.25-.36-.87c-.46-1.12-.83-1.83-1.33-2.18-2.07-1.42-5.09-1.32-7.02.23-.77.62-1.21,1.6-1.17,2.61.04,1.01.53,1.9,1.34,2.46,1.33.92,2.44,1.31,3.49,1.31ZM339.73,71.27c.1.05.2.09.3.14l-1.78.25c-.19-.01-.63-.24-.99-.56.99-.53,1.64-.22,2.47.17Z"></path><path d="M343.18,79.57c-6.11-3.79-7.15-2.92-7.6-2.55l-.98.82,6.51,3.18c.39.19,1.23,1.07,1.77,1.76.47.6.66,1.38.5,2.08-.1.45-.38,1.06-1.15,1.45-1.35.68-2.43.8-4.59,1.05h-.04c-.29-.18-.61-.11-.63-.11-.02,0-.23.06-.4.23l-.39.04.17.73h0s0,.04,0,.04c0,.02,0,.03.01.05l.17.72h0l.1.42.55.08c.51.08,1.03.11,1.54.11,2.12,0,4.16-.65,5.45-1.79,1.07-.94,1.62-2.19,1.58-3.61-.04-1.66-1.28-3.91-2.6-4.73Z"></path><path d="M133.89,102.15c.67,0,1.46-.59,2.44-1.32.35-.26.74-.55,1.15-.83.26-.18.5-.35.74-.52,1.3-.93,2.53-1.81,5.61-3.04.92-.37,1.98-.62,2.91-.83,1.72-.4,2.86-.67,3.11-1.61.06-.21.23-.84-.19-1.47-.43-.65-1.31-1.05-2.79-1.26-1.9-.28-6.83.58-10.15,3.84-3.61,3.55-4.03,4.94-4.03,5.68,0,.51.22.83.4,1.01.24.24.5.34.78.34Z"></path><path d="M164.04,93.86c.56.02,1.2.04,1.89.1,2.01.17,3.08.71,4.43,1.39.32.16.65.33,1,.5.48.23.91.34,1.28.34s.67-.11.92-.32c.46-.39.6-1.06.38-1.79-.19-.64-.86-1.89-3.24-3.14-1.97-1.03-4.7-1.08-6.05-.86-2.65.43-3.36,1.05-3.66,1.48-.21.3-.29.65-.22.98.24,1.22,1.57,1.26,3.25,1.32Z"></path><path d="M225.9,245.14l-2.72-6.35-4.18,1.61,2.33,5.88c-.54.23-1.06.48-1.56.74l-3.84-5.61-3.78,2.38,3.71,5.75c-.6.46-.98.79-1.04.84l-4.13,3.61,19.44-8.65-3.38-.21c-.28-.02-.56,0-.84,0Z"></path><polygon points="212.13 243.8 216.45 250.49 220.57 248.17 215.94 241.4 212.13 243.8" fill="#005315"></polygon><polygon points="223.2 238.76 218.95 240.4 221.66 247.23 226.44 246.33 223.2 238.76" fill="#dd000d"></polygon><path d="M322.05,127.65c-.03.16-.04.37-.03.52,1.04.61,2.84.89,3.99.42.02-.18,0-.46-.05-.62-1.05-.46-2.79-.6-3.91-.32Z" fill="#005315"></path><path d="M320.86,84.41c-.39-.14-.8-.39-1.05-.58-.06-.05-.13-.11-.18-.18-.05.07-.1.14-.14.2-.1.26-.02.93.13,1.15,1.79.64,2.5.76,3.31.19,0-.01-.01-.03-.02-.04l-2.04-.73Z" fill="#005315"></path><path d="M182.23,303.22c-.82-.54-1.88-.9-2.94-.9-.99,0-1.98.32-2.79,1.1-.96.94-1.41,2.17-1.27,3.48.15,1.4.95,2.64,2.19,3.42.83.52,2.19.98,3.53.74,2.14-.39,3.29-2.09,3.47-3.6.27-2.24-1.26-3.61-2.19-4.23Z" fill="#fff"></path><path d="M330.9,109.89c.66-.21,1.16-.62,1.39-1.17.24-.56.2-1.22-.11-1.85-.68-1.37-2.2-2.45-4.08-2.91-.63-.15-1.27-.23-1.89-.23-1.46,0-2.85.41-3.92,1.2-.33.24-.56.68-.62,1.18-.05.45.05.88.27,1.15,2.23,2.65,5.67,3.66,8.96,2.64Z" fill="#dd000d"></path><polygon points="308.37 110.37 308.37 110.37 308.37 110.37 308.37 110.37" fill="#005315"></polygon><path d="M256.45,288.57l-6.94-12.82-12.58-24.2c-.94-1.8-1.66-3.75-2.31-5.58l-2.52-7.16c-1.34-3.81-2.84-11.43-2.83-15.94v-1.33s2.07,1.01,2.07,1.01l.07.41c1.79,10.16,5.15,18.8,8.5,26.63.1.24.22.49.35.74l-.59-5.79c-.44-4.32-.33-8.82.36-14.17l.14-1.09,1.01.44c.4.17,1.06,1.11,1.06,1.63l.06,6.79c.03,2.63,1.1,14.94,2.22,16.91,5.75-1.7,12.32-4.98,19.53-9.75,2.39-1.58,5.78-4.11,8.01-6.22-.03-.01-.06-.02-.08-.03l-3.54-.39c-4.75-.53-12.79-4.47-16.23-7.95-8.12-8.22-11.3-18.64-9.71-31.85.5-4.13,1.67-8.17,3.78-13.04-.02-.01-.03-.03-.05-.04-1.89,1.07-3.46,2.19-4.67,3.32l-2.25,2.11c-.71.66-2.65.92-3.52.47l-2.56-1.33c-.46-.24-.91-.48-1.37-.73-1.2-.65-2.44-1.31-3.72-1.81-2.92-1.13-6.5-1.24-9.82-.3l-7.04,1.99c2.5,4.62,3.75,8.31,4.27,12.54,1.08,8.76-.36,16.15-4.8,24.71-2.14,4.12-4.49,7.68-7.19,10.88-3.74,4.42-9.97,9.01-15.52,11.43-10,4.35-20.31,3.1-29.81-3.63-.85-.6-1.68-1.21-2.51-1.81-2.3-1.67-4.48-3.25-6.88-4.68l-5.52-3.3c-1.2-.72-2.65-.81-4.31-.27-3.42,1.1-6.64,4.48-7.78,7.1-1.89,4.37-1.74,8.74-1.39,13.2l1.07,13.44,1.95,22.25,1.38,13.75,2.44,21.67c.04.36.23,1.03.39,1.32l4.08.46,4.4.4,7.78.32h6.7s0,0,0,0c8.53,0,22.95-2.07,32.16-4.61,16.35-4.51,29.15-10.16,42.81-18.9,4.31-2.76,9.37-6.14,14.25-10.32l7.03-6.03c.1-.18.19-.69.15-.86ZM169.25,279.82c-3.84,0-7.22-2.79-7.84-6.7-.33-2.09.17-4.19,1.42-5.91s3.09-2.84,5.18-3.18c2.09-.33,4.19.17,5.91,1.42,1.72,1.25,2.84,3.09,3.18,5.18.68,4.32-2.28,8.4-6.6,9.08-.42.07-.84.1-1.25.1ZM186.67,311.25c-1.2,1.75-3.11,2.9-5.38,3.23-.45.06-.88.1-1.32.1-3.92,0-7.19-2.6-8.03-6.56-.87-4.16,1.42-7.93,5.57-9.18l.11-.02c4.02-.63,9.03,1.79,10.08,6.4.5,2.2.13,4.34-1.04,6.05ZM206.05,268.02c-1.44,2.06-3.79,3.22-6.32,3.22-.63,0-1.27-.07-1.91-.22-4.15-.97-6.93-4.7-6.46-8.68.24-2.11,1.32-3.97,3.03-5.26,1.72-1.3,3.94-1.84,6.08-1.48.94.15,2.59.81,3.4,1.46,3.77,3.03,4.66,7.44,2.2,10.96ZM220.61,303c-.96.38-1.97.56-2.99.56-1.34,0-2.69-.33-3.91-.98-2.15-1.14-3.69-3.14-4.21-5.46-.41-1.82.04-3.74,1.26-5.4,1.44-1.95,3.71-3.28,5.95-3.46,3.68-.31,7.01,1.89,8.28,5.45,1.35,3.79-.53,7.78-4.37,9.29ZM210.68,253.99l4.13-3.61c.06-.05.44-.38,1.04-.84l-3.71-5.75,3.78-2.38,3.84,5.61c.5-.26,1.02-.51,1.56-.74l-2.33-5.88,4.18-1.61,2.72,6.35c.28-.01.56-.02.84,0l3.38.21-19.44,8.65Z" fill="#fff"></path><path d="M292.08,142.42c.38,0,.83.22,1.41.49.53.25,1.18.57,1.8.75l10.11,2.99c9.52,2.81,25.44,4.42,37.03,3.73l2.44-.14c.2-.03.84-.32,1.06-.49,1.82-3.84.88-7.02.39-8.22-.56-1.35-1.22-1.98-1.45-2.11l-3.96.41-5.51.47c-8.17.69-23.24.37-32.24-.7-8.24-.97-13.02-1.8-21.31-4.41-2.9-.91-5.17-2.49-7.58-4.15l-.65-.45c-2.93-2.01-5.89-3.69-9.02-5.47-.82-.47-1.65-.94-2.49-1.42-2.43-1.4-5.93-.16-8.71,1.07-1.54.68-2.25,2.63-2.4,4.1-.13,1.27.15,2.03.33,2.15,4.91,3.47,11.47,7.78,18.75,10.31l4.76,1.65-2.19-1.65c-.32-.24-.67-.66-1.13-1.22l-1.41-1.7,1.93.14c.29.02,1.77.14,2.42.52l3.97,2.3c.45.26.89.52,1.34.78,2.7,1.58,5.48,3.21,8.48,4.19,3.48,1.14,8.62,2.08,13.28,2.69-9.24-3.22-9.94-4.64-10.18-5.13-.32-.65-.02-1.05.12-1.19.19-.19.4-.27.63-.27Z" fill="#a1612c"></path><path d="M352.26,135.25c3.74-.29,6.46-.25,9.08-.22,3.7.05,6.89.1,12.08-.81,4.07-.71,10.01-3.12,13.78-5.12l4.61-2.46,8.3-4.7c1.39-.79,2.79-1.49,4.28-2.22l.52-.26c-4.65-1.25-9.57-2.63-14.48-4.35l-20.42-7.15-11.4-4.14-9.44-3.18-8.91-2.63-2.81-.77c-.02.07-.03.14-.03.19l2.5,10.34c.47,1.94.93,3.85,1.4,5.75l4.03-1.99c.42-.21,1.37-1.01,1.91-1.7.15-.3-.02-1.64-.27-1.96-1.62-1.94-2.21-2.12-3.78-2.59-.53-.16-1.18-.35-1.99-.65l-1.73-.64,1.62-.87c1.14-.61,2.71-.6,4.31.02,2.16.85,3.9,2.58,4.56,4.51,1.07,3.16-1.07,5.77-6.38,7.76l-.3.11-1.66-.67c1.08,4.36,2.2,8.65,3.5,13.07l1.76,5.95c.31,1.06.52,1.53.64,1.73l4.71-.37Z" fill="#f5be58"></path><path d="M385.42,119.34c2.05-1.58,5.7-1.83,7.86.32.65.65.74,1.92.55,2.83-.18.85-.62,1.44-1.22,1.67-1.19.44-2.35.88-3.36.88-.78,0-1.47-.25-2.04-.95-.21-.26-.27-.61-.15-.93.23-.62,1.11-.98,1.39-1.03l2.31-.42v-.27c-1.44-.28-2.88-.27-3.4.04l-1.84,1.12-.42-.23c-.17-.09-.45-.32-.49-.83-.04-.5.21-1.74.81-2.2Z" fill="#f5be58"></path><path d="M354.55,118.34c1.71-2.99,6.46-5.1,12.08-5.36,6.26-.29,11.52,1.69,14.06,5.29.97,1.38,1.3,2.98.94,4.62-.45,2.04-1.91,3.94-3.91,5.1-2.75,1.6-6.42,2.47-10.07,2.47-4.68,0-9.34-1.43-12.04-4.59-1.95-2.29-2.36-5.24-1.05-7.53Z" fill="#dd000d"></path><path d="M346.43,125.65l3.22,2.22,1.9,1.59c1.11.93,3.07,1.86,4.95,1.86.03,0,.06,0,.09,0l6.48-.11.19,2.49-5.75.5c-.32.03-.63.04-.94.04-4.04,0-7.54-2.29-9.08-6.01l-1.06-2.58Z" fill="#f5be58"></path><path d="M310.61,72.11c-.99-.18-1.95-.26-2.85-.26-3.99,0-6.96,1.56-7.9,2.89-.33.47-.4.88-.21,1.2,1.24,2.13,4.31,3.63,7.82,3.82,3.49.19,6.49-.97,8.04-3.09.17-.23.36-.6.1-1.24-.57-1.43-2.82-2.92-5-3.32Z" fill="#dd000d"></path><path d="M385.39,64.9c-5.74-2.27-13.67-4.23-21.22-5.26l-3.45-.47-14.54-1.9c-3.33-.44-6.61-.64-9.78-.62l-8.73.06-.26.21c1.34,2.15,1.41,4.24,1.46,5.66.02.42.04.98.1,1.22l7.06-.38,6.81-.61,3.37-.34c1.32-.14,2.61-.2,3.86-.2,4.26,0,8.13.79,11.75,2.37,1.39.61,3.03,1.05,4.85,1.31l7.98,1.14c1.64.23,3.49.64,5.22,1.13,5.38,1.54,7.64,2.39,12.27,5.02.14.08.2.08.2.08.11-.01.45-.32.7-.54.78-.69,2.05-1.83,4.62-2.75-1.51-.85-3.48-1.66-4.95-2.24l-7.33-2.9Z" fill="#a1612c"></path><path d="M200.78,259.25c-.55-.23-1.11-.34-1.67-.34-1.08,0-2.12.42-2.97,1.23-.94.9-1.43,2.06-1.37,3.26.06,1.25.69,2.4,1.78,3.25,1.6,1.24,4.19,1.97,6.23-.09,1.11-1.12,1.31-3.05.92-4.29-.38-1.23-1.58-2.46-2.92-3.01Z" fill="#fff"></path><path d="M365.28,73.49c-5.12-1.94-12.05-.64-14.35,4.34.2,1.73.87,2.87,2.05,3.48,4.58,2.39,12.42.63,15.54-3.48.24-.32.29-.72.15-1.21-.35-1.22-1.75-2.52-3.39-3.14Z" fill="#dd000d"></path><path d="M308.43,104.41c-.24.07-.46.13-.69.2.88,0,1.87.13,2.51.44.77.37,1.74,1.99,1.56,2.91-.13.67-.67,1.44-1.69,2.41l-.32.31-1.42-.31h0s0,0,0,0l-.46-.1h0s-.98-.22-.98-.22l.66-.68v-.02s.64-.71.64-.71h.05s.84-.86.84-.86c-.06-.12-.14-.26-.2-.33-.81-.25-2.12-.29-3.01-.31-1.15-.03-1.85-.05-1.95-.84-.03-.26.03-.45.15-.6-4.04,1.25-7.45,2.49-10.71,3.89l-7.81,3.36-7.99,3.6c-4.54,2.05-8.9,3.65-12.63,4.96l4.92,2.73c2.28,1.27,4.56,2.73,7.16,4.59,2.13,1.52,4.21,2.6,6.17,3.2l3.79,1.15c4.09,1.25,10.57,2.34,14.86,2.78l4.86.5c6.63.68,21.1,1.02,27.92.44l9.14-.81c.08-.07.18-.19.24-.28l-1.68-5.29c-1.92-6.07-3.6-12.32-5.43-20.28l-2.79-12.1c-.13-.16-.5-.39-.68-.44l-16.63,4.41-8.39,2.33ZM305.68,128.04c-2.5,2.56-6.89,3.45-10.12,3.45-.19,0-.38,0-.57,0-5.97-.2-11.03-2.49-13.53-6.13-2-2.91-1.36-6.6,1.51-8.78,5.78-4.38,12.91-3.61,17.65-1.42,4.09,1.89,6.74,4.95,6.92,7.97.11,1.89-.52,3.55-1.85,4.92ZM329.87,129.06c-.55.91-1.39,2.18-2.4,2.63-1.03.46-2.1.68-3.15.68-1.85,0-3.63-.7-5.03-2.04-.75-.72-1.1-1.66-1-2.67.11-1.06.73-2.05,1.67-2.64.94-.59,1.98-.93,3.06-1.03l-1.11-2.62c-2.14-5.07-9.16-6.3-12.25-6.59-.57.16-1.4.34-1.81-.3-.42-.68.2-1.36.44-1.61l.17-.18.24-.06c3.65-.92,9.25.59,12.5,3.39,2.22,1.92,3.27,4.26,3.01,6.78l-.12,1.18c1.11.06,2.22.36,3.28.93,1.1.6,1.95,1.73,2.59,3.45l.14.37-.2.34ZM318.29,105c.35-1.4,1.27-2.58,2.58-3.32,2.92-1.64,6.52-1.89,9.62-.67,2.59,1.02,4.44,2.91,5.21,5.33.93,2.93-.52,5.82-3.45,6.87-1.18.43-2.45.63-3.73.63-3.81,0-7.68-1.78-9.53-4.71-.8-1.27-1.05-2.73-.7-4.12Z" fill="#f5be58"></path><path d="M361.85,126c4.17,1.64,9.68,1.03,12.96-.41,1.02-.45,2.28-1.46,2.98-2.41.85-1.15.39-2.67-.48-3.52-3.63-3.54-10.16-3.81-15.02-2.49-1.87.5-4.23,1.91-4.94,3.39-.23.48-.26.92-.07,1.34.81,1.86,2.34,3.24,4.57,4.11Z" fill="#dd000d"></path><path d="M218.49,291.88c-.41-.14-.85-.21-1.28-.21-.78,0-1.57.22-2.27.65-1.08.66-1.83,1.7-2,2.79-.41,2.61,1.54,4.34,3.52,4.83,1.39.35,2.92.03,4-.84.69-.56,1.5-1.58,1.45-3.29-.09-2.62-2.63-3.67-3.41-3.93Z" fill="#fff"></path><path d="M293.01,117.09c-2.75,0-5.44.68-7.53,1.94-1.04.63-2.02,2.09-1.75,3.18.69,2.75,5.05,5.23,10.16,5.77,3.79.39,8.41-.36,10.01-3.68h0c.22-.46-.08-2.21-.56-2.8-2.5-3.05-6.46-4.41-10.33-4.41Z" fill="#dd000d"></path><path d="M279.19,101.28c1.16-.92,1.38-2.86.45-4.07-4.01-5.23-10.73-5.29-15.29-2.66-1.51.87-3.18,2.65-3.47,4.36-.15.9.08,1.7.72,2.42,3.61,4.15,12.32,4.12,17.6-.06Z" fill="#dd000d"></path><path d="M250.15,91.12c-4.29,4.39-3.81,11.45-1.12,16.14,2.16,3.77,4.08,6.09,7.34,8.85l.11.09c2.12,1.8,3.96,3.35,6.05,2.59,4.16-1.52,8.62-3.19,13.3-5.29l5.25-2.36c7.91-3.56,15.38-6.92,23.67-9.25l20.03-5.62,4.73-1.16-2.98-.83c-.72-.2-1.43-.4-2.14-.6-3.26-.92-6.64-1.87-10.06-2.56l-18.95-3.79-7.77-1.38-14.07-2.34c-3.04-.5-5.86-1.11-8.89-1.89-.67-.17-1.77-.12-2.01.04l-2.01,2.05c-2.93,2.97-4.44,6.55-5.81,11.01l-.93,3.04-.67-3.1c-.5-2.33-.08-4.3.73-6.5-1.19.66-3.33,2.41-3.79,2.88ZM267.53,112.53c-.55.77-1.79,1.17-2.47,1.34l-2.19.53,1.33-1.83c.39-.53.56-.84.64-1.01-.33-.19-1.21-.47-1.62-.6l-3.03-1,2.68-.71c.61-.16,2.01-.29,2.97-.22.86.06,1.41,1.04,1.61,1.46.23.49.55,1.4.09,2.04ZM296.05,103.46c-.86.51-2.05.8-3.34.8-1.6,0-3.36-.45-4.84-1.48-.68-.47-1.3-1.95-1.17-2.78.12-.76.99-1.89,1.73-2.24,2.02-.95,4.94-.83,6.96.3,1.24.69,2,1.71,2.13,2.87.11.99-.42,1.91-1.46,2.53ZM286.84,87.77c.49-.08.93.21,1.04.67l.19.82c4.08,3.21,8.4,3.03,14.9,2.29.08-.04.17-.08.28-.1l.47-.07.06.07.84-.1-.49,1.22h0s-.02.06-.02.06c0,0,0,0,0,0h0s-.53,1.32-.53,1.32l-.42.1c-2.32.55-4.46.82-6.44.82-3.74,0-6.9-.98-9.56-2.96l-.13-.1-1.21-2h-.29s-.08-.76-.08-.76c-.09-.91,1.37-1.3,1.38-1.3ZM258.95,94.83c2.19-3.1,5.86-5.1,10.07-5.49,4.54-.42,8.92,1.06,12.03,4.07,2.37,2.3,3.16,5.53,2.02,8.24-1.71,4.05-7.9,5.99-12.93,6.09-.15,0-.3,0-.45,0-5.62,0-9.94-2.08-11.6-5.61-1.03-2.18-.68-5.12.86-7.3Z" fill="#f5be58"></path><path d="M425.28,105.14c.81-.25,1.18.62,1.36,1.03l.41.95c.6,1.41,1.08,2.78,1.47,4.22,1.15-4.52,1.63-13.17-6.04-23.93-5.01-7.02-11.69-12.05-18.81-14.15-2.4-.71-6.35.08-7.72,1.72,7.17,3.57,15.1,10.81,18.73,17.15,3.92,6.84,4.29,11.32,1.61,19.15l-.75,2.18c.43-.26.88-.57,1.16-.75,1.13-.76,1.75-1.18,2.36-.67.23.2.45.56.23,1.18.03.77-.52,1.34-2.2,2.37l-2.49,1.53,1.69.22c1.93.26,4.38,1.34,5.95,2.62l1.24,1.02c.83-1.35,2.41-5.92,2.04-9.03-.01-.07-.06-.32-.12-.67-1.03-5.49-.97-5.89-.12-6.15Z" fill="#a1612c"></path><path d="M405.69,136.31c4.05-2.22,8.72-5.26,10.9-7.36l4.47-4.33c.09-.08.32-.31-.18-.98-1.62-2.21-7.67-4.64-12.02-2.28l-12.6,6.84c-.72.39-1.42.77-2.11,1.15-8.1,4.43-15.09,8.25-25.38,9.01-3.05.22-5.35.17-7.58.11-2.58-.06-5.01-.13-8.52.22l-3.32.33c-.06.02-.24.11-.4.2l1,2.76c.88,2.42.37,5.38-.01,6.93l-.26,1.04,3.58-.18,6.17-.52,4.58-.52c14.06-1.59,34.43-7.89,45.55-20.45l1.46-1.65v2.2c-.02,2.46-2.94,5.44-5.33,7.47Z" fill="#a1612c"></path><path d="M390.22,86.16s0-.06,0-.09l-2.4-.1v.06c.7.1,1.69.16,2.4.14Z" fill="#005315"></path><path d="M361.38,90.02l-3.07.97-14.91,4.24,4.15,1.18,7.89,2.61,11.08,3.95,14.2,5.15,9.39,3.23,7.66,2.5,11,3.12c.24.04,1.13-.35,1.3-.58l1.99-3.86c3.06-5.94,3.32-11.51.75-16.55-3.4-6.69-8.89-12.31-16.78-17.17l-2.13-1.31c-.67-.41-1.27-.14-2.94.82-.88.51-1.98,1.14-3.36,1.69l-16.62,6.68c3.74-.16,6.17.02,10.34,2.03,1.58.76,2.76,2.19,3.18,3.83.38,1.52.08,3.06-.84,4.33-1.89,2.6-6.03,4.3-10.8,4.43-5.32.15-10.02-1.66-12.6-4.83-1.25-1.53-1.1-4.45.28-5.67l.86-.76ZM405.6,110.2c-1.03,1.16-2.38,1.73-3.87,1.73-1.57,0-3.3-.64-4.98-1.92-.64-.49-.72-1.64-.21-3.41l.06-.19.14-.15c.05-.06.1-.11.15-.16l.48-.51.02.02c.42-.37.74-.45,1.15-.06.43.41.3.8.02,1.16,0,0,0,0,0,0h0s0,.01,0,.01c.29.68.64,1.46.95,1.68.65.46,2.22.5,3.1.31.04-.12.07-.3.08-.45l-2.62-.85c-.38-.12-.64-.4-.72-.76-.07-.36.07-.73.38-1,.71-.61,2.4-.88,4.28-.21.93.33,1.71,1.27,2,2.4.23.92.08,1.78-.43,2.35ZM395.12,90.65c.72-.77,1.35-.57,1.58-.45l.28.15h0s1.19.63,1.19.63l-.38.73c-.07.12-.18.27-.35.36-.52.41-.87.93-.93,1.4-.04.33.05.62.29.91.97,1.18,2.81,1.84,4.59,1.63.89-.1,2.5-.52,3.29-2.14l.31-.64,2.21.67-.29.82c-.64,1.81-1.84,3.15-3.3,3.67-1.03.37-2.05.55-3.03.55-2.55,0-4.83-1.21-6.2-3.44-.99-1.6-.2-3.85.74-4.86ZM384.03,85.8c-.02-.78.23-1.43.71-1.82,2.35-1.88,5.51-1.8,8.68.23l.41.26-.2,3.66-.37.23c-1.35.83-2.67,1.25-3.97,1.25-1.41,0-2.79-.49-4.18-1.46-.7-.49-1.05-1.54-1.07-2.35ZM385.47,102.85c.8-.43,2.61-.29,3.33.13.86.51.91,2.37.85,2.71l-.25,1.5-2.54-2.31c-.31.17-.81.55-.98.73l-.56.59-2.27-2.05,2.42-1.31Z" fill="#f5be58"></path><path d="M380.58,95.06c.17-.14.44-.71.48-1.38.03-.46-.08-.69-.12-.73-3.27-3.41-10.2-3.43-15.06-1.73-.79.28-1.74,1.01-2.57,1.69-.06.05-.2.3-.24.75-.05.52.07.91.13.99l1.74,1.38c4.23,2.02,10.82,2.97,15.63-.99Z" fill="#dd000d"></path><path d="M340.03,71.41c-.1-.05-.21-.09-.3-.14-.83-.39-1.48-.69-2.47-.17.37.32.8.55.99.56l1.78-.25Z" fill="#005315"></path><path d="M57.97,292.12c.79.72,1.53,1.4,2.45,2.12l9.92,7.72c.5.39,2.96.29,6.54-.65,5.64-1.48,11.23-4.29,14.6-7.31,2.77-2.49,5.07-4.81,7.33-8.03,2.18-3.1,4.89-7.27,6.58-12l2.3-6.44,2.11.63-.69,7.23-1.03,8.53-.41,4.07-.51,6.27-.4,5.58c-.38,5.27-.56,12.13-.54,20.39.06.18.62.72.86.81l12.43,3.77c2.32.7,11.65,2.88,13.76,2.61l-1.73-14.72-.43-3.99-1.44-14.53-1.49-16.33-.96-11.16-.46-6.4-.42-9.02c-.32-6.85,2.21-14.97,8.58-17.65l2.91-1.22c-.45-.34-.9-.68-1.33-1.02-4.23-3.23-7.03-5.37-11.3-10.21-3.15-3.57-10.56-12.79-12.38-22.39-3.49.4-17.89,8.22-20.47,10.07l-5.95,4.26c-.8.57-1.73,1.34-2.83,2.36l-5.03,4.63c-.2.18-.52.64-.76,1.05,5.25,1.59,9.76,4.12,13.78,7.71l.21.19.05.28c.1.59.28,1.58-.51,1.92-.64.28-1.13-.22-1.38-.54l-5.97-3.46c-2.87-1.67-4.41-2.2-5.04-2.29,1.16,3.51,1.18,5.36,1.2,6.7.01,1.17.02,1.88.71,3.18,1.59,3,1.86,4.43,2.06,5.48.17.88.28,1.47,1.18,2.75l3.44,4.88c5.12,7.27,9.36,18.26,5.93,27.3l-.67,1.77-.08.1c-.18.22-.73.89-1.42.53-.72-.37-.49-1.26-.31-1.93,1.21-6.85.6-12.02-2.16-18.42-.87-2.03-4.16-8.04-5.78-9.7-.11.42-.22.84-.33,1.27-.47,1.82-.96,3.7-1.71,5.27-1.39,2.89-3.21,5.73-5.74,8.94-8.11,10.29-19.02,16.23-30.07,16.41l3.04,3.26c1.64,1.76,3.21,3.32,4.82,4.79l4.97,4.54Z" fill="#fff"></path><path d="M61.27,270.95c4.22-2.8,7.47-5.64,10.22-8.93,4.96-5.94,11.01-14.82,7.13-23.94l-1.22,2.87c-.71,1.68-5.01,9.88-7.76,10.93l-1.98.75.94-1.89c.86-1.73,1.52-2.77,2.16-3.77.74-1.16,1.43-2.25,2.43-4.36,5.85-12.43,3.22-16.82.03-20.26-1.71-1.84-4.25-3.39-7.56-4.6.06,1.06,1.25,2.09,1.84,2.54,3.52,2.68,5.03,7.17,3.92,11.72-1.52,6.25-7.8,11.52-12.99,13.76-8.36,3.61-16.96,3.18-26.28-1.33-5.3-2.56-9.87-8.23-10.86-13.48l-.53-2.82c-2,3.73-1.97,6.67-1.69,10.65.11,1.59.54,3.09,1.31,4.56,4.47,8.61,8.5,15.39,12.83,21.47l.11-.3c.29-.85.4-1.15.56-1.36,1.53-2.09,1.17-5.05-.83-6.75l-3.31-2.81,1.17-.55c2.57-1.19,5.09,1.92,6.05,3.31.96,1.39,1.63,3.93.8,6.2-.58,1.61-1.79,2.71-3.5,3.18l-.33.09c1.34,1.85,2.71,3.64,4.13,5.4l3.21,3.97c.2.23,1.26.73,1.7.75,6.45.41,12.78-1.32,18.31-4.99Z" fill="#fff"></path><path d="M171.87,268.31c-.77-.56-1.67-.85-2.61-.85-.23,0-.47.02-.71.06-1.17.19-2.21.82-2.9,1.78s-.98,2.14-.8,3.31c.19,1.17.82,2.21,1.78,2.9.96.7,2.14.98,3.31.8,1.17-.19,2.21-.82,2.9-1.78.7-.96.98-2.14.8-3.31-.19-1.17-.82-2.21-1.78-2.9Z" fill="#fff"></path><path d="M372.56,70.21l-1.42-.22c-2.22-.34-4.31-.66-6.48-1.17l-5.51-1.3c-.9-.21-1.74-.46-2.54-.71-2.21-.67-4.3-1.3-7.62-1.03l-7.11.58c-3.6.29-8.27.64-12.42.78-.05.01-.21.08-.37.16l.08.41c.3,1.46.76,3.67,1.13,4.91l5.69,19.23c.16.53.38,1.05.53,1.32,1.09-.17,3-.55,4.03-.82l3.57-.93c6.78-1.77,12.5-3.38,18.38-5.48l9.84-3.5c5.36-1.91,10.74-4.26,15.93-6.54l.91-.4v-.13c-5.51-2.54-11.11-4.27-16.65-5.14ZM333.5,71.29c-.04-1.02.4-1.99,1.17-2.61,1.93-1.55,4.95-1.65,7.02-.23.5.35.87,1.06,1.33,2.18l.36.87-.91.25s-.03,0-.04.01l.04,1.67-.39.25c-1.36.87-2.52,1.4-3.74,1.4-1.05,0-2.16-.39-3.49-1.31-.82-.56-1.31-1.46-1.34-2.46ZM344.2,87.9c-1.3,1.14-3.33,1.79-5.45,1.79-.51,0-1.02-.04-1.54-.11l-.55-.08-.1-.42h0l-.17-.72s0-.03-.01-.05v-.04s0,0,0,0l-.17-.73.39-.04c.17-.17.38-.23.4-.23.02,0,.34-.07.63.11h.04c2.15-.25,3.24-.38,4.59-1.06.77-.39,1.05-1,1.15-1.45.16-.7-.03-1.48-.5-2.08-.55-.7-1.38-1.57-1.77-1.76l-6.51-3.18.98-.82c.44-.37,1.48-1.25,7.6,2.55,1.32.82,2.56,3.07,2.6,4.73.03,1.42-.51,2.66-1.58,3.61ZM372.14,77.5c-.15,1.66-1.02,3.23-2.39,4.29-2.81,2.18-7.38,4.1-11.95,4.1-.78,0-1.56-.06-2.33-.17-3.24-.5-5.88-2.11-7.62-4.63l-.15-.21v-.26c0-1.77.08-3.31.26-5.02l.02-.21.12-.17c2.45-3.52,6.8-5.8,11.64-6.1,4.41-.27,8.38,1.15,10.88,3.92,1.12,1.25,1.66,2.83,1.52,4.47Z" fill="#f5be58"></path><path d="M170.76,102.21c.09,0,.19,0,.28.01-.19-.36-.43-.7-.73-.99-.69-.68-1.63-1.03-2.81-1.03h-.07c-3.44.04-5.34,3.37-5.65,6.46-.14,1.44.16,3.48,1.44,4.9.84.93,1.99,1.41,3.41,1.41,1.52,0,2.72-.67,3.68-2.04-1.72-.28-3.05-2.12-3.05-4.34,0-2.41,1.57-4.38,3.51-4.38Z" fill="#fff"></path><path d="M173.38,111.96l3.6-.4-2.06-4.33c-.18,1.43-.65,3.17-1.54,4.73Z" fill="#ffc2a4"></path><path d="M164.79,175.93c-.04-.23-.08-.51-.12-.73-3.15.54-7.22,1.08-10.99.53l-11.27-1.64-5.41-.99-3.77-.88c0,1.66,1.82,7.07,2.51,8.69,1.4,3.29,2.94,6.14,4.68,8.66,2.37-2.86,5.18-5.6,9.27-7.09,6.21-2.26,15.29-3.23,20.46,1.44l1.98,1.79c.33-.12.89-.54,1.04-.79-.24-1.63-.79-1.89-2.55-2.74-.99-.48-2.34-1.13-4.02-2.28-1.33-.92-1.61-2.68-1.81-3.97Z"></path><path d="M22.95,228.01c.16-.43.32-.93.38-1.16l.64-2.9c-1.07,1.12-2.55,3.02-2.92,3.64l1.9.43Z" fill="#005315"></path><path d="M103.07,305.3l.44-8,.45-6.4.66-7.37c-2.28,3.77-5.49,8.3-8.26,11.05-5.18,5.13-12.77,9.02-20.89,10.73v.13c9.37,6.04,17.62,10.28,27.26,14l.33-14.12Z" fill="#00aca2"></path><path d="M269.75,275.34l2.18-2.61c2.08-2.49,3.85-4.9,6.04-7.98,7.98-11.25,14.31-23.36,18.81-36.01,2.43-6.84,5.5-18.09,6.41-25.45l1.58-12.87-.08-.14c-3.92,4.79-7.16,11.05-8.76,16.99-.01.22.41.97.6,1.29.14.24.25.45.32.6,1.35,3.1,2.12,5.93,1.49,9.69-.7,4.16-3,6.22-5.23,8.2-.42.38-.85.76-1.28,1.16l-6.51,6.15c-2.02,1.91-3.55,2.66-5.03,3.38-1.34.66-2.72,1.33-4.6,2.94l-3.16,2.7c-6,5.14-19.2,13.37-27.64,15.02l-.36.41,9.44,17.79,4.98,9.44.31.45,7.6-7.83,2.88-3.33Z" fill="#00aca2"></path><path d="M143.7,119.48c3.18,0,5.97-1.42,7.53-3.68-.08,0-.16,0-.24,0-2.18,0-3.95-2.23-3.95-4.97,0-2.77,1.78-5.03,4.02-4.97-.96-1.29-2.37-1.92-4.26-1.92-2.29,0-4.3.8-5.81,2.31-1.39,1.39-2.36,3.38-2.73,5.61h0c-.36,2.15.2,4.47,1.41,5.9.97,1.14,2.32,1.72,4.03,1.72Z" fill="#fff"></path><path d="M249.2,188.17c-6.03,13.05-4.45,28.8,3.82,38.31,2.43,2.79,6.56,5.7,10.04,7.07,4.84,1.91,11.7,3.15,15.32,1.34,1.62-.81,3.05-1.75,3.94-2.58l2.37-2.22c-6.95,2.12-16.01,3.13-22.36.08-.34,0-.84-.09-.95-.68-.15-.77.54-.98,1.26-1.19l.17-.05,3.84.47c7.45.91,17.37-1.15,24.68-5.13,1.58-.86,3.02-3.01,3.58-5.35.16-.66.23-1.29.23-1.86-.36.77-.75,1.5-1.25,2.16-1.82,2.47-6.99,2.26-10.02,1.17-5.59-2.02-8.09-3.8-12.61-7.04-4.9-3.51-8.71-9.89-9.47-15.87-.99-7.82,1.11-15.7,5.92-22.27-9.49,2.99-15.72,7.57-18.52,13.62Z" fill="#fff"></path><path d="M252.07,75.34c-4.76,2.9-8.09,5.63-10.8,8.87-3.87,4.62-6.6,10.19-7.68,15.68-1.36,6.89.3,13.1,4.95,18.51-1.03-3.24-1.86-7.32-.24-10.28l.04-.07.34-.49.58.17c.8.23.92,1.84.93,1.86.22,6.12,2.76,12.1,7.35,17.38,1.13-3.28,3.43-5.54,6.46-6.29l1.97-.49c-4.49-3.12-8.41-7.75-10.57-12.5-1.93-4.23-3.41-10.56.47-16.7,1.37-2.18,3.42-3.57,5.4-4.92.31-.21.63-.43.94-.65l5.22-3.65c.99-.69,2.7-2.35,3.49-3.23-.04-.41-.93-1.62-2.58-2.63-1.08-.66-3.86-2.03-6.26-.57Z" fill="#a1612c"></path><path d="M325.96,69.01c-.29-1.84-.42-2.02-.94-2.03l-10.28-.21c-7.26-.15-16.88.98-26.38,3.09-7.03,1.56-14.85,4.63-20.93,8.21l-.84.71.18.15,11.91,2,26.14,4.71c4.17.75,8.65,1.61,13.23,2.82l14.46,3.81-6.02-20.75c-.27-.92-.4-1.76-.51-2.5ZM291.22,72.48c-.1.59-.79.99-1.15,1.05-.91.14-1.21.29-1.56.91,0,.09-.01.15-.02.15-.14.6-.63.65-.99.6h0s-.26-.05-.26-.05c-.02,0-.03,0-.05-.01l-1.08-.25.15-1.07c.11-.82.21-1.53.48-2.01.52-.92,2.4-1.1,3.2-.68l.84.44c.34.18.53.55.47.93ZM298.42,80.07c-1.24-1.01-2.01-2.51-2.13-4.12-.11-1.5.37-2.93,1.36-4.01,3.52-3.85,10.65-4.41,15.52-2.72,3.59,1.24,5.77,3.61,5.98,6.5.12,1.61-.9,3.76-2.32,4.88-2.28,1.81-5.42,2.71-8.63,2.71-3.54,0-7.15-1.09-9.78-3.24ZM325.48,87.2c-1.08.96-2.38,1.44-3.76,1.44-1.09,0-2.22-.3-3.33-.91-.65-.36-2.45-2.05-1.89-3.39l.95-2.26.3-.13c.45-.2,1.49-.67,2.06.03.03.04.06.09.09.13.32-.39.85-.86,1.45-.68l2.88.85c.92.27,1.65,1.16,1.91,2.31.24,1.06,0,2.03-.65,2.6Z" fill="#f5be58"></path><path d="M321.74,57.21l-19.61,2.29-3.47.45c-9.59,1.23-29.91,5.28-40.49,12.05l1.03.5c1.87.9,3.29,2.21,4.31,3.99,13.03-8.4,25.78-10.87,37.64-12.27l4.38-.52c2.98-.35,6.26-.46,10.32-.34l8.6.25c.36,0,.87-.04,1.2-.11-.04-1.68-.56-4.35-1.96-5.64-.56-.52-1.2-.73-1.95-.64Z" fill="#a1612c"></path><path d="M430.29,94.5c.59,1.63,1.11,3.1,1.56,4.86,1.8,7.07.7,14.43-3.12,20.74-7.22,11.95-19.94,20.64-38.86,26.56-8.94,2.8-19.93,5.1-28.02,5.87l-4.44.42-5.46.42-9.02.53c-8.54.5-16.74.5-25.09,0l-5.45-.32-3.88-.32c-8.88-.74-16.93-2.09-24.62-4.14l-5.76-1.53-7.33-2.34c-6.29-2.01-12.65-5.19-18.88-9.45-6.4-4.37-15.21-12.76-18.89-19.22-4.13-7.27-4.06-12.97-2.03-20.88-5.78,9.41-5.53,19.46.73,28.38,7.39,10.53,22.37,20.33,40.07,26.22,6.79,2.26,14.92,4.75,23.77,6.1l13.11,1.99,5.56.59,4.12.34,3.84.25c8.01.52,16.19.5,24.99-.06l5.9-.38,3.33-.3c6.11-.56,18.93-2.73,24.61-4.39l6.08-1.77,2.84-.92c4.52-1.46,9.01-3.24,14.14-5.61,2.7-1.24,10.06-5.26,12.29-6.88l5.64-4.09c2.64-1.92,5.03-4.5,6.82-6.54,9.92-11.29,10.41-22.48,1.48-34.13Z" fill="#753118"></path><path d="M353.16,162.65l-5.33.35c-4.1.27-8.46.33-12.67.38l-1.71.06c-.08,0-.17,0-.26.02l-.29.05c-.4.07-.82.14-1.29.12-.29-.01-.59-.05-.88-.09l-.97-.12h0s-8.92-.36-8.92-.36c-1.5-.06-3.09-.22-4.63-.37l-5.67-.56c-1.53-.15-3.15-.32-4.65-.55l-14.14-2.17-.11-.06c-.72-.35-1.55-.52-2.3-.49-.55-.19-1.14-.29-1.72-.36v-.05s-1.99-.48-1.99-.48c-.09-.02-.12-.02-.12-.02-.14.11-.36.88-.52,1.44-.35,1.22-.83,2.9-2.07,4.52-2.22,2.9-4.04,4.9-5.87,6.49l-3.15,2.72.03.07-.45.38c-1.29,1.09-2.17,2.08-2.74,3.11l-.06.11-.09.09c-1.39,1.3-2.58,3.49-3.97,7.33-2.91,8.03-1.81,16.12,3.01,22.19.04.05.09.09.15.14.5.44.96.84,1.42,1.22l.15.17s.05.07.08.1c.12.12.25.24.37.36.13.13.26.25.39.38l.13.13.11.21c.14.23,1.03.93,2.63,2.04,4.92,3.41,11.41,6.76,14.88,5.9.92-.23,1.58-.74,2.01-1.57,1.52-2.92,1.23-5.79,1.01-6.8l-.34-.73h0c.35-6.74,6.52-16.79,10.79-21.77l2.05-2.4c1.47-1.71,3.28-3.44,5.25-5,6.78-5.36,10.24-7.28,17.71-11.02,7.54-3.78,12.83-3.9,17.09-4.01,2.76-.07,5.17-.12,7.66-1.12Z" fill="#ffc2a4"></path><polygon points="260.97 78.48 260.97 78.48 260.97 78.48 260.97 78.48" fill="#005315"></polygon><path d="M226.74,245.13c-.23-.01-.46,0-.69,0-.64.08-1.28.16-1.91.28-.55.11-1.08.28-1.62.45-.66.27-1.38.58-2.13.9-.04.03-.08.06-.13.08-.36.22-.75.37-1.11.58-.36.22-.74.44-1.11.65-.28.2-.57.4-.86.59-.39.26-.79.49-1.18.74l-.02.02s-.09.06-.13.1h0c-.6.46-.98.79-1.04.84l-4.13,3.61,19.44-8.65-3.38-.21Z"></path><path d="M436.47,97.44c-1.6-2.96-3.68-5.58-5.5-7.74-2.05-2.44-3.65-3.85-5.34-5.34-1.14-1-2.32-2.04-3.78-3.51-6.31-6.33-8.97-7.58-15.42-10.6-.88-.41-1.84-.86-2.9-1.37-11.56-5.5-24-10.82-36.63-12.46l-20.03-2.58c-5.28-.68-14.78-.87-20.33-.41l-5.83.48-18.19,2.01c-17.21,1.95-31.74,5.75-43.18,11.29-1.19.58-2.14,1.17-2.91,1.65-1.89,1.17-2.23,1.26-2.82.72-5.03-4.57-9.3-7.96-13.85-10.98l-6.11-4.05c-5.74-3.81-13.79-7.88-18.93-10.22-3-1.36-5.92-2.47-9.01-3.65l-3.17-1.2c-.19-.11-.65-.72-.87-1.01-.19-.26-.37-.48-.5-.62-1.54-1.64-3.13-3.34-4.9-4.86l-2.82-2.41c-.11-.09-.28-.22-.47-.37-.27-.21-.91-.69-1.02-.84-.6-1.37-.82-2.9-1.1-4.83-.4-2.75-.89-6.16-2.75-10.61-2.93-7.01-10.94-12.78-19.03-13.71-8.06-.93-15.5.95-22.12,5.57-5,3.49-7.22,7.23-8.54,9.46-.43.73-.84,1.41-1.09,1.62-2.22,1.79-5.06,2.16-8.67,1.11-6.68-1.93-14.61-1.98-20.68-.13-4.53,1.38-8.69,3.66-12.71,6.96-4.67,3.84-7.74,7.74-10.58,13.45-1.63,3.28-2.19,5.9-2.6,7.81-.43,2.02-.68,3.02-1.54,3.51l-6.15,3.53c-3.65,2.1-6.91,4.26-9.97,6.63l-6.26,4.85-3.49,2.91-2.53,2.25c-3.65,3.25-6.91,6.51-9.97,9.96l-3.2,3.62-2.87,3.44c-3.27,3.93-6.38,8.51-9.12,12.56l-.19.28c-.17.25-.21.3-1.28-.19-1.32-.6-3.31-1.52-6.13-.18-1.37.65-3.64,2.59-3.89,5.01l-.53,5.13-.99-1.04c-1.71-1.79-3.85-2.97-5.87-3.23-3.25-.41-6.31,1.23-7.45,4.01-1.63,3.97.15,9.94,1.93,14.24l1.52,3.69c-3.23,4.82-.73,14.51.78,20.36l.33,1.27c.28,1.12.34,2.39.16,3.5l-1.03,6.26c-.17,1.04-.33,2.28-.5,3.88l-.5,4.75c-.57,5.41-.88,15.78-.45,21.56l.45,5.94.51,4.74c1.7,15.92,7.46,34.5,15.41,49.7,5.23,10,10.99,18.7,17.62,26.58l2.89,3.44,3.87,4.35c2.36,2.65,4.91,5.19,7.79,7.77l4.11,3.68,3.4,2.9c8.29,7.06,18.55,13.77,29.67,19.39,13.74,6.95,32.19,12.71,45.9,14.34l3.92.47,4.85.48,10.43.58c.93.05,1.9.08,2.9.08,1.39,0,2.84-.05,4.34-.15l7.28-.49,5.2-.5c.95-.09,2.04-.24,3.07-.41l6.99-1.18c3.79-.64,7.37-1.57,10.67-2.47,22.02-6.05,39.97-15.34,58.2-30.13,1.33-1.08,2.62-2.19,3.95-3.39l4.83-4.39c2.15-1.95,4.19-4,6.07-6.09l3.92-4.37,2.22-2.61c3.87-4.56,9.19-11.9,12.65-17.47,10.8-17.38,18.16-37.09,20.72-55.48l.88-6.34c.21-1.49.33-2.71.38-3.65l.32-6.99c.01-.31.14-1.09.24-1.34,6.47-6.41,13.92-11.39,23.46-15.66,5.38-2.41,9.97-2.55,14.02-2.68,4.65-.15,8.67-.27,12.1-3.84.83-.87,1.45-1.44,2.36-1.57,10.43-1.4,18.53-3.03,26.27-5.28,3.1-.9,5.95-1.98,8.96-3.12l.74-.28c12.21-4.61,21.36-9.75,29.64-16.66,5.38-4.49,11.59-12.44,13.32-20.08,1.38-6.08.3-13.01-2.95-19.02ZM403.66,73.27c7.13,2.1,13.81,7.13,18.81,14.15,7.67,10.76,7.19,19.41,6.04,23.93-.39-1.44-.87-2.82-1.47-4.22l-.41-.95c-.18-.41-.55-1.28-1.36-1.03-.86.26-.91.66.12,6.15.07.35.11.6.12.67.37,3.12-1.21,7.69-2.04,9.03l-1.24-1.02c-1.57-1.29-4.02-2.37-5.95-2.62l-1.69-.22,2.49-1.53c1.68-1.03,2.23-1.6,2.2-2.37.23-.62,0-.99-.23-1.18-.61-.51-1.23-.09-2.36.67-.27.18-.72.49-1.16.75l.75-2.18c2.68-7.83,2.31-12.3-1.61-19.15-3.63-6.35-11.56-13.58-18.73-17.15,1.37-1.64,5.32-2.43,7.72-1.72ZM409.56,128.29c-11.11,12.55-31.48,18.86-45.55,20.45l-4.58.52-6.17.52-3.58.18.26-1.04c.38-1.55.89-4.51.01-6.93l-1-2.76c.16-.09.34-.18.4-.2l3.32-.33c3.5-.35,5.94-.29,8.52-.22,2.23.06,4.54.11,7.58-.11,10.29-.76,17.28-4.58,25.38-9.01.69-.38,1.39-.76,2.11-1.15l12.6-6.84c4.35-2.36,10.39.07,12.02,2.28.5.68.27.9.18.98l-4.47,4.33c-2.17,2.1-6.85,5.14-10.9,7.36,2.38-2.03,5.31-5.01,5.32-7.47v-2.2s-1.45,1.65-1.45,1.65ZM291.33,143.89c.24.49.94,1.91,10.18,5.13-4.65-.61-9.79-1.56-13.28-2.69-3-.98-5.78-2.61-8.48-4.19-.45-.26-.89-.52-1.34-.78l-3.97-2.3c-.65-.38-2.13-.5-2.42-.52l-1.93-.14,1.41,1.7c.46.56.81.98,1.13,1.22l2.19,1.65-4.76-1.65c-7.28-2.53-13.85-6.83-18.75-10.31-.18-.13-.46-.89-.33-2.15.14-1.46.86-3.41,2.4-4.09,2.78-1.23,6.28-2.47,8.71-1.07.84.48,1.67.95,2.49,1.42,3.13,1.78,6.09,3.46,9.02,5.47l.65.45c2.41,1.66,4.68,3.24,7.58,4.15,8.29,2.61,13.07,3.44,21.31,4.41,9,1.06,24.07,1.39,32.24.7l5.51-.47,3.96-.41c.23.12.89.76,1.45,2.11.49,1.2,1.44,4.38-.39,8.22-.22.17-.86.46-1.06.49l-2.44.14c-11.58.69-27.5-.92-37.03-3.73l-10.11-2.99c-.62-.18-1.27-.5-1.8-.75-.57-.27-1.02-.49-1.41-.49-.23,0-.44.08-.63.27-.14.14-.43.54-.12,1.19ZM253.21,94.75l.67,3.1.93-3.04c1.37-4.46,2.88-8.04,5.81-11.01l2.01-2.05c.24-.16,1.34-.21,2.01-.04,3.03.79,5.86,1.39,8.89,1.89l14.07,2.34,7.77,1.38,18.95,3.79c3.43.69,6.8,1.64,10.06,2.56.71.2,1.42.4,2.14.6l2.98.83-4.73,1.16-20.03,5.62c-8.29,2.33-15.76,5.69-23.67,9.25l-5.25,2.36c-4.68,2.11-9.14,3.77-13.3,5.29-2.09.76-3.92-.79-6.05-2.59l-.11-.09c-3.26-2.76-5.18-5.07-7.34-8.85-2.69-4.7-3.17-11.75,1.12-16.14.46-.47,2.6-2.21,3.79-2.88-.81,2.2-1.23,4.17-.73,6.5ZM360.24,96.46c2.58,3.17,7.28,4.97,12.6,4.83,4.77-.13,8.91-1.83,10.8-4.43.93-1.27,1.22-2.81.84-4.33-.41-1.64-1.6-3.08-3.18-3.83-4.17-2-6.6-2.19-10.34-2.03l16.62-6.68c1.38-.55,2.48-1.18,3.36-1.69,1.67-.96,2.27-1.23,2.94-.82l2.13,1.31c7.89,4.86,13.38,10.47,16.78,17.17,2.57,5.04,2.31,10.61-.75,16.55l-1.99,3.86c-.17.23-1.06.62-1.3.58l-11-3.12-7.66-2.5-9.39-3.23-14.2-5.15-11.08-3.95-7.89-2.61-4.15-1.18,14.91-4.24,3.07-.97-.86.76c-1.38,1.23-1.52,4.14-.28,5.67ZM363.08,93.67c.04-.45.19-.71.24-.75.83-.68,1.78-1.41,2.57-1.69,4.86-1.71,11.78-1.68,15.06,1.73.04.04.15.26.12.73-.04.66-.31,1.23-.48,1.38-4.81,3.96-11.4,3.01-15.63.99l-1.74-1.38c-.07-.08-.18-.47-.13-.99ZM388.3,75.88c-5.2,2.27-10.57,4.63-15.93,6.54l-9.84,3.5c-5.89,2.1-11.61,3.71-18.38,5.48l-3.57.93c-1.03.27-2.94.66-4.03.82-.15-.27-.37-.79-.53-1.32l-5.69-19.23c-.37-1.24-.83-3.45-1.13-4.91l-.08-.41c.15-.07.32-.14.37-.16,4.15-.13,8.82-.49,12.42-.78l7.11-.58c3.32-.27,5.41.36,7.62,1.03.8.24,1.63.49,2.54.71l5.51,1.3c2.16.51,4.26.83,6.48,1.17l1.42.22c5.54.87,11.14,2.6,16.65,5.14v.13s-.91.4-.91.4ZM334.13,98.11l2.79,12.1c1.83,7.95,3.51,14.21,5.43,20.28l1.68,5.29c-.06.1-.16.22-.24.28l-9.14.81c-6.81.59-21.29.24-27.92-.43l-4.86-.5c-4.29-.44-10.77-1.54-14.86-2.78l-3.79-1.15c-1.96-.6-4.04-1.67-6.17-3.2-2.6-1.86-4.88-3.32-7.16-4.59l-4.92-2.73c3.74-1.31,8.09-2.91,12.63-4.96l7.99-3.6,7.81-3.36c3.26-1.4,6.67-2.64,10.71-3.89-.12.16-.18.35-.15.6.1.79.79.81,1.95.84.88.03,2.2.06,3.01.31.07.08.15.21.2.33l-.84.87h-.05s-.65.7-.65.7v.02s-.65.68-.65.68l.98.22h0s.46.1.46.1h0s0,0,0,0h0s0,0,0,0h0s1.42.31,1.42.31l.32-.31c1.02-.98,1.55-1.74,1.69-2.41.18-.92-.79-2.55-1.56-2.91-.64-.3-1.63-.44-2.51-.44.23-.07.45-.13.69-.2l8.39-2.33,16.63-4.41c.18.04.55.28.68.44ZM346.91,133.89l-1.76-5.95c-1.3-4.42-2.42-8.71-3.5-13.07l1.66.67.3-.11c5.31-1.99,7.45-4.6,6.38-7.76-.66-1.93-2.41-3.66-4.56-4.51-1.6-.63-3.17-.64-4.31-.02l-1.62.87,1.73.63c.81.3,1.46.49,1.99.65,1.57.47,2.16.65,3.78,2.59.25.32.41,1.65.27,1.96-.54.68-1.49,1.49-1.91,1.7l-4.03,1.99c-.47-1.9-.93-3.81-1.4-5.75l-2.5-10.34s.01-.11.03-.19l2.81.77,8.91,2.63,9.44,3.18,11.4,4.14,20.42,7.15c4.91,1.72,9.83,3.09,14.48,4.35l-.52.26c-1.48.74-2.89,1.44-4.28,2.22l-8.3,4.7-4.61,2.46c-3.77,2.01-9.71,4.41-13.78,5.12-5.19.91-8.38.86-12.08.81-2.62-.04-5.34-.08-9.08.22l-4.71.36c-.12-.2-.33-.67-.64-1.73ZM327.67,56.71l8.73-.06c3.17-.01,6.45.19,9.78.62l14.54,1.9,3.45.47c7.55,1.03,15.48,2.99,21.22,5.26l7.33,2.9c1.47.58,3.44,1.4,4.95,2.25-2.57.92-3.84,2.05-4.62,2.75-.25.22-.59.53-.7.54,0,0-.06,0-.2-.08-4.63-2.63-6.89-3.48-12.27-5.02-1.73-.5-3.58-.9-5.22-1.13l-7.98-1.14c-1.82-.26-3.46-.7-4.85-1.31-3.62-1.59-7.49-2.37-11.75-2.37-1.25,0-2.54.07-3.86.2l-3.37.34-6.81.61-7.06.38c-.07-.24-.09-.8-.1-1.22-.05-1.43-.13-3.52-1.46-5.66l.26-.21ZM326.47,71.52l6.02,20.75-14.46-3.81c-4.57-1.21-9.06-2.07-13.23-2.82l-26.14-4.71-11.91-2-.18-.15.84-.71c6.09-3.58,13.91-6.64,20.93-8.21,9.5-2.11,19.12-3.24,26.38-3.09l10.28.21c.52.01.66.19.94,2.03.12.74.25,1.58.51,2.5ZM298.66,59.94l3.47-.45,19.61-2.29c.76-.08,1.39.12,1.95.64,1.4,1.29,1.92,3.96,1.96,5.64-.32.07-.84.11-1.2.11l-8.6-.25c-4.06-.12-7.34-.01-10.32.34l-4.38.52c-11.86,1.4-24.61,3.87-37.64,12.27-1.02-1.78-2.44-3.09-4.31-3.99l-1.03-.5c10.58-6.76,30.89-10.82,40.49-12.05ZM258.33,75.91c1.65,1,2.54,2.22,2.58,2.63-.79.89-2.5,2.54-3.49,3.23l-5.22,3.65c-.31.22-.63.43-.94.65-1.98,1.35-4.03,2.75-5.4,4.92-3.88,6.13-2.4,12.47-.47,16.7,2.16,4.75,6.09,9.38,10.57,12.5l-1.97.49c-3.03.75-5.32,3.01-6.46,6.29-4.59-5.28-7.13-11.26-7.35-17.38,0-.02-.12-1.63-.93-1.86l-.58-.17-.34.49-.04.07c-1.62,2.97-.8,7.04.24,10.28-4.65-5.41-6.31-11.62-4.95-18.51,1.08-5.49,3.81-11.06,7.68-15.68,2.71-3.24,6.04-5.97,10.8-8.87,2.4-1.46,5.18-.09,6.26.57ZM233.28,58.6l2.34,1.56c3.27,2.18,13.61,9.82,14.99,11.77-.04.04-.08.07-.1.09-7.04,4.62-8.57,6.24-11.36,9.17-1.26,1.33-2.83,2.98-5.32,5.33-8.74,8.27-12.38,19.33-9.71,29.6,2.89,11.13,12.61,21.07,29.72,30.39,3.62,1.97,12.22,5.75,16.38,7.06l10.65,3.35c.46.15.87.31,1.11.44-.64,2.19-2.16,5-3.6,6.59q-5.14,5.67-7.64,6.2c-.99.21-2.35.5-4.44,1.16-10.12,3.22-14.15,7.18-16.31,9.3-.69.68-1.29,1.27-1.64,1.34-3.69.79-6.46,2.04-8.23,3.7l-3,2.82c-.37.12-1.81-.75-2.86-1.39-1.26-.77-2.82-1.72-4.56-2.42-2.28-.92-4.5-1.26-6.6-1.26-3.63,0-6.93,1.02-9.6,1.85-2.15.67-4.18,1.3-4.85.76l-3.47-2.76-2.15-1.68c-.97-.76-1.31-1.06-1.48-1.38-.06-.19-.13-.38-.19-.57,0,0,0-.01,0-.02-.07-.26-.13-.39-.27-.83-.01,0-.05-.18-.07-.18-1.78-5.19-4.44-11.46-8.31-17.83,8.24-2.98,15.32-10.27,11.33-17.8-.63-1.2-2.39-2.36-3.74-2.21-1.94.22-3.78,1.54-3.45,3.5.53,3.1,3.88,4.48,2.85.24.67.35,1.46.84,1.62,1.57.53,2.31-3.97,6.48-8.9,7.38-1.69.31-3.22.27-4.66.1-.64-.83-1.29-1.66-1.98-2.49-.04-.05-.09-.09-.13-.14.46-.44,1.42-1.07,2.17-1.57,1.36-.89,3.06-2.01,4.63-3.48,6.28-5.88,11.06-16.06,6.74-24.52-3.44-6.74-10.78-8.97-16.33-9.66-.82-.1-1.83-.67-2.3-1.3-4.94-6.61-3.22-12.55-1.84-17.31.66-2.28,1.23-4.25.93-5.91l-1.75-9.49c.14-.14.37-.33.52-.41,6.27.52,12.82-1.22,18.03-4.77,5.64-3.85,9.17-9.44,9.94-15.74.29-2.36.26-4.99-.07-7.6-.21-1.62-.62-2.75-.96-3.66-.18-.5-.32-.88-.39-1.21,10.32,4.03,20.82,9.34,28.29,14.33ZM261.8,196.82c.76,5.98,4.56,12.36,9.47,15.87,4.53,3.24,7.02,5.02,12.61,7.04,3.03,1.09,8.2,1.3,10.02-1.17.49-.67.88-1.4,1.25-2.16,0,.57-.07,1.19-.23,1.86-.56,2.34-2,4.49-3.58,5.35-7.32,3.98-17.24,6.04-24.68,5.13l-3.84-.47-.17.05c-.72.22-1.41.42-1.26,1.19.11.59.61.68.95.68,6.35,3.05,15.41,2.03,22.36-.08l-2.37,2.22c-.88.83-2.32,1.77-3.94,2.58-3.61,1.81-10.47.57-15.32-1.34-3.49-1.38-7.62-4.28-10.04-7.07-8.28-9.51-9.85-25.26-3.82-38.31,2.8-6.06,9.03-10.64,18.52-13.62-4.81,6.57-6.91,14.46-5.92,22.27ZM102.2,176.42l-1.72-4.89c.5-.87,1.07-1.74,1.71-2.61l.38.13,2.06,5.6c1.38,3.74,4.41,6.93,8.32,8.76l3.27,1.53c.17.18.47.8.52,1.08l.72,4.23c-.16.19-.52.48-.67.55l-1.44.69c-7.2-3.98-10.67-7.97-13.16-15.07ZM114.26,194.32l-.18.38-3.95-.88c-4.37-.97-7.54-2.87-9.68-5.81-3.26-4.46-3.3-10.19-.28-15.87l.11,3.68c.13,4.25,1.91,8.21,5.6,12.49,1.49,1.73,3.53,3.28,6.41,4.91l1.97,1.11ZM117.92,136.1l1.26-7.49,2.18-15.16c.41-2.85.61-5.87.66-9.8.01-1.31.12-3.18.9-4.34,1.18-1.76,6.4-4.29,10.9-6.08,4.08-1.62,11.04-3.64,15.9-4.2l4.37-.5c3.62-.42,8.65-.24,12.51.44l2.96.52c1.53.27,4.01,1.11,5.57,1.76.45.19-.1,2.17-.47,3.47-.33,1.18-.71,2.51-.88,3.84-.08.63-.12,1.24-.14,1.85-.3-.5-.66-.97-1.1-1.41-1.3-1.28-2.99-1.93-5.03-1.93-.03,0-.07,0-.1,0-4.6.05-8.2,3.87-8.74,9.29-.21,2.11.27,5.14,2.24,7.32.59.66,1.29,1.19,2.06,1.59-2.17,1.26-4.45,2.67-6.58,4.48l-2.48,2.11,1.89,1.53,5.49-3.32c3.81-2.31,10.34-4.41,15.18-4.89,7.29-.72,16.14,1.32,19.47,7.49,3.8,7.04-.65,16.13-7,21.47-4.5,3.78-9.64,6.28-15.71,7.63-4.17.93-10.25,1.79-14.84-1.52-4.46-3.22-3.53-7.98-2.64-12.58l1.19-6.12-2.43,3.22c-4.06,5.57-3.88,12.59.42,17.08,2.4,2.5,5.77,3.8,9.4,4.21-1.59.74-3.36,1.36-5.49,1.53-5,.41-10.42-2.45-10.51-4.82-.03-.74.6-1.42,1.16-1.93.1,4.36,2.98,2.16,2.69-.97-.18-1.98-2.31-2.77-4.24-2.48-1.34.2-2.74,1.78-3.04,3.1-3.31,14.51,25.76,19.57,30.66,7.91.13-.3.21-.58.28-.85.16.33.37.67.63,1.01,2.71,3.49,7.75,4.25,12.86,3.19,3.71,5.95,6.3,11.85,8.09,16.85-.02,0,.05.11.03.1.14.32.18.52.3.84.38,1.11.74,2.13,1.05,3.13l.02.04c1.24,4.4,1.43,8.68.52,12.54-.58,2.45-1.36,5.26-2.79,7.6-3.72,6.07-11.81,10.35-21.65,11.45-6.41.72-12.08.19-19.59-1.82-11.59-3.1-21.27-10.2-25.71-15.87-3.59-4.58-6.24-9.47-7.86-14.56-2.9-9.05-4.22-21.33-4.25-29.47l-.02-5.84v-.07c-.05-.5-.14-1.66-1.03-1.77l-.66-.09-.23.62c-.2.53-.36,1.03-.51,1.5-.3.94-.56,1.75-1.01,2.45-.82,1.3-2.43,2.28-4.1,2.52-1.13.16-2.83.04-4.47-1.43-4.83-4.31-4.03-11.23-1.88-15.83,1.78-3.82,5.34-7.82,8.9-7.62.89.05,1.59.39,2.13,1.04,1.34,1.59,1.5,4.79,1.21,7.26l-.12,1.02,2.18-.21ZM129.69,79.99c.59-.27,1.46-.74,2.24-1.45,3.23-2.98,8.95-6.36,13.63-7.06l3.47-.52c4.95-.75,7.48-1.7,9.15-2.34,2.58-.97,2.97-1.13,8.46,1.65,3.3,1.67,6.43,4.45,8.16,7.23.11.23.13,1.12.15,1.6.01.42.02.79.06,1.06l.52,3.63.54,4.11-1.16-.46c-5.28-2.11-13.96-2.94-18.97-2.5l-4.23.37c-8.34.73-19.2,4.12-27.02,8.43-1.72.95-2.89,2.1-4.25,3.43-.04.04-.08.08-.12.12-.02-1.68.15-3.25.32-4.79.41-3.79.8-7.38-1.8-11.44,2.86-3.06,6.96-6.64,10.08-8.12l5.36-2.54c.53-.25,1.55-.54,1.8-.51l2.12.43c-3.56,1.97-7.77,4.44-9.6,8.58l-.88,1.98,1.98-.89ZM176.98,111.56l-3.6.4c.9-1.56,1.36-3.3,1.54-4.73l2.06,4.33ZM170.31,110.93c-.95,1.37-2.16,2.04-3.68,2.04-1.42,0-2.56-.47-3.41-1.41-1.28-1.42-1.59-3.46-1.44-4.9.31-3.08,2.21-6.42,5.65-6.46h.07c1.18,0,2.12.34,2.81,1.03.3.29.53.64.73.99-.09,0-.19-.01-.28-.01-1.93,0-3.51,1.96-3.51,4.38,0,2.22,1.33,4.06,3.05,4.34ZM182.47,152.44s0,0,0,0c0,0,0,0,0,0h0ZM116.41,197.73c.06-.73,1.05-3,2-3.98l2.97,5.87c2.24,4.4,7.53,10.39,11.36,13.63,3.01,2.56,5.65,4.43,8.3,5.89,17.86,9.87,33.47,11.4,47.66,4.68-5.19,4.76-13.74,8.63-19.97,8.9l-6.61.28c-.36-.29-.9-.6-1.43-.26-.71.45-.41,1.4-.22,1.96l.16.47.49.08c15.19,2.6,30.52-5.04,36.42-18.18.24-.54.06-1.22-.13-1.55-.24-.42-.58-.52-.76-.55-.01,0-1.14-.12-1.81.49-7.32,6.64-18.5,10.08-28.49,8.75-5.8-.77-11.34-2.33-16.93-4.77-8.57-3.74-14.41-8.03-20.17-14.81-6.11-7.19-8.42-13.66-9.1-17.24,4.53,10.09,10.13,16.4,19.41,22.06,4.14,2.52,11.72,5.68,16.24,6.75l3.9.93c4.04.96,11.42,1.26,15.81.64,6.03-.86,20.58-4.09,25.32-15.56,2.14-5.17,2.42-8.39,2.48-13.59,2.96,10.88,2.28,20.06-2.14,29.49-2.18,4.66-4.77,8.63-7.93,12.15l-1.87,2.09-.58.67-.52.66.56.55c.43.42,1.56.42,2.01,0l1.5-1.39c6.16-5.7,10.24-12.22,12.45-19.93,1.8-6.26,1.93-10.41,1.54-16.32-.07-1.02-.25-2.64-.55-3.85l-.81-3.33c4.74,6.05,7.47,17.31,3.79,28.24-2.31,6.86-5.94,13.15-10.48,18.19-6.39,7.08-17.65,13.53-26.83,12.14-7.06-1.07-11.33-4.17-16.73-8.09-4.48-3.26-8.04-5.27-11.18-7.06-5.87-3.33-10.5-5.96-18.24-14.67-4.65-5.24-11.33-15.37-10.89-20.47ZM86.12,44.37c1.07-3.53,3.76-8.56,6.12-11.46,2.87-3.52,6.44-6.53,10.62-8.94,5.93-3.42,13.48-4.66,20.73-3.41l5.07.87c-3.1,1.53-9.94,5.72-11.04,9.43-.22.76.55,1.36.97,1.53.56.24,1.03-.02,1.22-.37,1.93-3.45,9.35-7.18,12.45-8.62,6.14-2.86,12.22-3.17,17.88-3.07.45,0,1.46-.33,1.77-.67l.9-.98-1.27-.38c-2.9-.86-6.67-1.24-9.83-.99-.11,0-.19,0-.24,0,.05-.91,2.14-3.69,2.98-4.55l.41-.4c1.01-.99,1.88-1.84,2.91-2.67,9.2-7.34,23.6-9.59,33.31.32,4.31,4.4,5.73,9.19,6.73,15.98l.3,2.02-2.27-.82c-4-1.61-4.53-1.59-4.92-.83-.43.85.48,1.41,1.74,2.18l5.63,3.44c5.32,3.25,7.09,4.56,10.9,9.03.06.1.15.46.21.67.16.61.28,1,.55,1.27l1.09,1.11c1.2,1.22,2.5,8.04,1.98,12.09-.86,6.73-6.2,13.13-13.29,15.92-4.06,1.6-8.51,1.95-12.72,2.18-.59.03-.69-.09-1.29-1.01-.61-.94-1.53-2.37-3.79-3.88-2.1-1.4-4.45-2.65-7.37-3.91l3.11-2.34c.12-.08.45-.21.67-.26,1.87,2,5.23,4.35,8.04,4.94l3.35.7c3.64.76,10.82.02,13.35-2.81l1.64-1.84-2.41.47c-6.64,1.3-13.64,2.19-19.81-2.21l-1.81-1.29c-.05-.04-.1-.08-.15-.12.08-.18.19-.37.27-.45l2.49-2.86c.63-.73,1.5-2.56,1.51-2.58l1.13-2.38c.35-.74.44-2.12.46-2.52l.11-2.46-1.57,1.89c-.97,1.16-1.41,1.88-1.88,2.64-.47.76-1,1.61-2.19,3.12-8.76,11.11-23.11,15.25-36.58,10.57-7.77-2.7-11.75-6.63-17.37-12.76-.27-.29-.64-.33-1.25-.38l-1.82-.21.84,1.43c4.18,7.1,8.88,11.28,16.17,14.37l-4.05,1.98c-3.13,1.53-7.48,2.09-9.2,2.26-4.81.48-9.99-.49-13.84-2.59l-8-4.35-.18,2.45,5.08,3.9c3.69,2.83,11.57,4.71,16.87,4.02l2.19-.28-2.29,2.54c-.61.67-1.33,1.05-2.13,1.1-6.91.5-12.18.05-18.63-3.77-3.91-2.31-6.79-5.32-8.8-9.18-3.59-6.9-4.14-13.84-1.72-21.83ZM29.48,102.25l8.24-11.57c.48-.67,1.04-1.33,1.59-1.96l3.25-3.8,2.72-3.11c2.55-2.91,5.3-5.68,8.43-8.47l4.09-3.64c1.2-1.07,2.53-2.16,3.94-3.23l5.25-3.98c1.5-1.14,3.05-2.12,4.68-3.17.45-.29.9-.57,1.35-.86l1.74-1.13c.3-.19.59-.39.89-.59.58-.38,1.17-.78,1.75-1.12l3.67-2.15.05-.02c.05.5.08,1.21.09,1.74.03.78.05,1.58.14,2.2.96,6.84,3.96,13.07,8.23,17.07,5.38,5.04,12.3,7.95,20.03,8.42,1.66.1,3.55-.18,5.07-.41.45-.07.82.05,1.16.36,1.27,1.14,1.69,4.32,1.64,5.77-.09,2.39-.32,4.05-.5,5.39-.41,3.02-.6,4.39,1.63,7.83.14.25.35,1.39.32,1.77l-.44,5.49c-.09,1.1-.26,2.3-.43,3.43l-.51,3.38-1.33,8.43c-.02.13-.04.22-.06.27-.21-.04-.62-.2-.93-.33-1.14-.46-2.86-1.15-4.92-.56-3.31.95-6.14,3.19-8.19,6.47-3.16,5.07-4.23,9.8-3.35,14.87.69,4.03,3.02,7.42,6.39,9.31,2.44,1.37,5.18,1.44,7.71.2l1.12-.55s.04.08.05.1l.29,4.29.43,5.35c.5,6.11,1.29,10.19,2.57,15.59.04.23-.14,1.11-.43,1.71-.04.04-.35.15-1.05-.02-2.43-.59-6.69-3.71-8.54-8.81l-1.43-3.96c-.26-.71-1.04-2-1.45-2.55-.24-.32-.62-.51-1.14-.56-.8-.08-2.03.15-2.59.65-1.4,1.23-2.74,2.98-3.69,4.8-2.74,5.26-3.23,11.1-1.34,16.02,1.67,4.34,5.1,7.67,9.65,9.37l2.29.85c-11.7,5.51-17.12,8.09-27.12,16.49-1.53,1.28-3.05,2.84-4.52,4.35l-.96.98c-.15.16-.23.18-.23.18-.15-.01-.61-.39-.93-.67-.6-.5-1.42-1.19-2.59-1.78-2.04-1.03-4.35-1.65-5.92-2,0,0-.42-.16-.95-1.65-1.83-5.06-2.13-15.87-1.12-17.35l6.59-9.7c3.48-5.12,7.09-16.2,8.51-21.34,2.58-9.33,1.56-16.24-3.03-20.54-2.81-2.64-6.34-4.19-9.68-4.25l-2.71-.05-.27-2.47c-.12-1.12-1.18-3.07-1.81-3.78-3.54-4.06-6.74-6.24-12.6-5.33l-10.42,1.62c-1.59.25-3.23.89-4.68,1.47l-.1-4.69-.43-10.51c-.06-1.56-.21-3.29-.46-5.29-.34-2.76-1.31-4.73-2.02-6.17-.48-.97-.9-1.82-.68-2.13ZM4.81,119.86c-1.95-6.03-1.4-8.74-.6-9.95.52-.78,1.33-1.21,2.49-1.31,3.39-.29,6.75,4.23,7.79,6.72,1.71,4.1,3,7.43,4.14,11.33,1.96,6.67,3.69,15.07,4.8,23.26l-2.14-5.47-2.27-6.41c-1.38-3.9-4.45-12.59-11.12-12.59-.41,0-.83.03-1.26.1l-1.83-5.67ZM7.44,129.11c.57-.3,1.12-.32,1.73-.09,2.41.92,4.91,5.65,6.33,9.42l9.74,25.92.85-1.71c1.06-2.14,1.01-6.84.8-11.59l-.02-.4c-.23-5.26-3.96-22.14-5.66-27.3l-1.93-5.85c-.39-1.18-.49-2.84-.59-4.31-.02-.29-.04-.58-.06-.85v-.09c-.19-2.48-.52-7.11,1.27-9.08.57-.62,1.31-.94,2.27-.97,1.32-.02,2.94.79,3.71,1.89,2.88,4.04,3.26,8.56,3.44,13.63l.54,14.97c.04,1.14,0,1.98-.33,2.93-2.48,7.11-3.22,16.11-1.9,22.93l.06.18c.36.8.78,1.71,1.61,1.38.27-.11.66-.4.46-1.16.53-11.12,1.5-18.41,2.97-22.27.95-2.51,3.72-3.29,5.29-3.53l12.34-1.93c3.41-.54,6.06,2.11,8.41,5.06.57.71.91,2.68.64,3.69-.06.22-.49.92-1.76,2.14-3.81,3.69-6.51,3.42-10.24,3.04-1.71-.17-3.65-.37-5.92-.18-.38.03-1.36.42-1.71.88-.17.23-.24.49-.19.76l.26,1.29c.51,2.58,1.04,5.25.28,7.65l-1.14,3.61c-.25.8.56,1.96,1.33,2.21,3.28,1.07,6.09,2.13,8.36,3.16,1.79.81,3.19,1.26,4.12,1.56.31.1.64.21.89.3l-1.24,1.52c-.13.1-.23.25-.28.49l-.17.8,1.3.29h0s.9.16.9.16l5.29-4.86,4.11-3.64c.53-.46,1.13-1.11,1.11-1.93-.01-.92-.73-1.52-1.64-2.27-1.34-1.12-3.19-2.65-4.1-6.07-.71-2.68.03-5.35,1.92-6.96,2.71-2.3,8.43-.5,11.18,1.75,4.77,3.9,4.9,10.67,3.56,15.28l-1.87,6.45c-2.32,8-9.18,24.32-18.57,28.79l-4.64,2.21c-.29-.14-.67-.19-.99.22-.08.1-.44.62.14,1.16h0s.09.07.09.07c0,0,.02.01.03.02l.6.48.2.04c2.43.44,5.07-.75,7-1.63.51-.23,1.15-.52,1.59-.67-.3,7.33,1.14,15.06,4.51,24.26l3.74,10.2.17-.18c-.72,1.64-1.95,3.34-3.7,5.13-2.93,2.99-6.05,4.96-9.55,6.02-7.42,2.25-12.83,1.09-20.2-1.83-.1-.04-.21-.12-.33-.22-1.19-.43-2.32-1.11-3.17-2-.34-.23-.66-.49-.95-.78-.18-.19-.33-.37-.46-.55-.4-.37-.76-.76-1.06-1.21-.38-.41-.72-.81-.99-1.21q-2.59-3.86-1.86-6.22l3.44-11.11c1.43-4.62,1.89-9.33,1.4-14.33-.28-1.48-.57-2.96-.91-4.42-.01-.05-.01-.09-.02-.14-.16-.55-.34-1.09-.6-1.59l-.29-.25-5.11-6.97c-.43-.59-.85-1.15-1.26-1.7-4.11-5.56-6.83-9.23-8.23-16.95l-1.35-7.46c-.73-4.06-1.68-7.87-2.69-11.9l-2.05-8.24c-.95-3.73-3.47-13.65-.28-15.3ZM43.69,150.38l-.35-2.07c1.15-.06,2.34.09,3.58.25,2.5.31,5.31.67,8.39-.74.01.02.03.04.04.06-.32,3.93,1.57,8.09,5.12,11.21.02.12.01.31,0,.44l-3.92,3.3c-.9.76-2.62.59-3.77-.01-1.49-.78-4.73-2.19-7.34-3.33-1.02-.45-2.07-.9-2.64-1.16.05-.18.11-.39.16-.57.44-1.51,1.26-4.33.74-7.37ZM15.71,232.26c-2.98-7.62-6.56-19.73-7.71-29.35l-1.03-8.58-.4-4.61c-.45-5.17-.47-12.48-.05-17.38l.5-5.8.5-4.88c.07-.67.19-1.52.34-2.39l1.8,9.65,1.12,5.65c1.54,7.75,6.32,13.86,10.16,18.76,2.01,2.57,3.75,4.78,4.66,6.74,2.6,5.59,1.1,13.21-.49,19.18-.12.25-.93.88-1.63,1.28-3.68,2.09-6.74,6.2-7.45,9.98l-.32,1.74ZM23.97,223.95l-.64,2.9c-.05.24-.22.74-.38,1.16l-1.9-.43c.37-.62,1.86-2.52,2.92-3.64ZM42.96,275.94c-.44-.03-1.5-.52-1.7-.75l-3.21-3.97c-1.42-1.76-2.79-3.55-4.13-5.4l.33-.09c1.7-.47,2.91-1.57,3.5-3.18.82-2.28.16-4.81-.8-6.2-.96-1.39-3.48-4.5-6.05-3.31l-1.17.54,3.31,2.81c2,1.7,2.36,4.66.83,6.75-.15.21-.26.51-.56,1.36l-.11.3c-4.32-6.08-8.36-12.86-12.83-21.47-.77-1.48-1.19-2.97-1.31-4.56-.29-3.98-.32-6.92,1.69-10.65l.53,2.82c.99,5.25,5.56,10.92,10.86,13.48,9.33,4.51,17.93,4.95,26.28,1.33,5.19-2.25,11.48-7.51,12.99-13.76,1.1-4.55-.4-9.03-3.92-11.72-.59-.45-1.77-1.48-1.84-2.54,3.31,1.21,5.85,2.76,7.56,4.6,3.19,3.44,5.82,7.83-.03,20.26-.99,2.11-1.69,3.21-2.43,4.36-.64,1.01-1.3,2.05-2.16,3.77l-.94,1.89,1.98-.75c2.75-1.04,7.05-9.25,7.76-10.93l1.22-2.87c3.89,9.12-2.17,18-7.13,23.94-2.75,3.29-5.99,6.13-10.22,8.93-5.53,3.67-11.86,5.4-18.31,4.99ZM103.96,290.89l-.45,6.4-.44,8-.33,14.12c-9.64-3.72-17.89-7.96-27.27-14v-.13c8.13-1.71,15.72-5.6,20.9-10.73,2.77-2.74,5.98-7.28,8.26-11.05l-.66,7.37ZM119.51,324.8l-12.43-3.77c-.23-.09-.8-.62-.86-.81-.02-8.26.16-15.12.54-20.39l.4-5.58.51-6.27.41-4.07,1.03-8.53.69-7.23-2.11-.63-2.3,6.44c-1.69,4.72-4.4,8.89-6.58,12-2.26,3.23-4.57,5.54-7.33,8.03-3.37,3.03-8.96,5.83-14.6,7.31-3.58.94-6.04,1.04-6.54.65l-9.92-7.72c-.92-.72-1.66-1.4-2.45-2.12l-4.97-4.54c-1.61-1.47-3.18-3.04-4.82-4.79l-3.04-3.26c11.05-.18,21.96-6.12,30.07-16.41,2.53-3.21,4.35-6.05,5.74-8.94.75-1.57,1.24-3.45,1.71-5.27.11-.43.22-.86.33-1.27,1.63,1.66,4.91,7.67,5.78,9.7,2.76,6.41,3.36,11.58,2.16,18.42-.18.66-.41,1.55.31,1.93.7.36,1.24-.31,1.42-.53l.08-.1.67-1.77c3.44-9.05-.81-20.03-5.93-27.3l-3.44-4.88c-.9-1.28-1.01-1.87-1.18-2.75-.2-1.05-.47-2.48-2.06-5.48-.69-1.3-.7-2.01-.71-3.18-.02-1.35-.04-3.19-1.2-6.7.63.09,2.17.62,5.04,2.29l5.97,3.46c.26.32.75.81,1.38.54.78-.34.61-1.33.51-1.92l-.05-.28-.21-.19c-4.02-3.59-8.53-6.12-13.78-7.71.25-.41.56-.87.76-1.05l5.03-4.63c1.1-1.02,2.03-1.79,2.83-2.36l5.95-4.26c2.58-1.85,16.99-9.67,20.47-10.07,1.82,9.6,9.23,18.82,12.38,22.39,4.27,4.84,7.07,6.98,11.3,10.21.43.33.88.67,1.33,1.02l-2.91,1.22c-6.37,2.68-8.9,10.8-8.58,17.65l.42,9.02.46,6.4.96,11.16,1.49,16.33,1.44,14.53.43,3.99,1.73,14.72c-2.11.27-11.44-1.91-13.76-2.61ZM256.3,289.43l-7.03,6.03c-4.88,4.18-9.94,7.56-14.25,10.32-13.65,8.74-26.46,14.39-42.81,18.9-9.21,2.54-23.64,4.61-32.16,4.61h-6.71s-7.78-.32-7.78-.32l-4.4-.4-4.08-.46c-.15-.29-.35-.96-.39-1.32l-2.44-21.66-1.38-13.75-1.95-22.25-1.07-13.44c-.35-4.46-.5-8.83,1.39-13.2,1.14-2.63,4.36-6,7.78-7.1,1.66-.54,3.11-.44,4.31.27l5.52,3.3c2.4,1.44,4.58,3.01,6.88,4.68.83.6,1.66,1.21,2.51,1.81,9.51,6.73,19.81,7.98,29.81,3.63,5.55-2.41,11.78-7.01,15.52-11.43,2.7-3.2,5.06-6.76,7.19-10.88,4.44-8.57,5.88-15.96,4.8-24.71-.52-4.23-1.77-7.93-4.27-12.54l7.04-1.99c3.32-.94,6.9-.83,9.82.3,1.28.5,2.52,1.16,3.72,1.81.46.25.91.49,1.37.73l2.56,1.33c.87.45,2.81.19,3.52-.47l2.25-2.11c1.21-1.13,2.78-2.25,4.67-3.32.02.01.03.03.05.04-2.12,4.86-3.29,8.9-3.78,13.04-1.59,13.21,1.59,23.63,9.71,31.85,3.44,3.48,11.48,7.42,16.23,7.95l3.54.39s.05.02.08.03c-2.23,2.11-5.62,4.64-8.01,6.22-7.22,4.77-13.78,8.05-19.53,9.75-1.11-1.97-2.19-14.28-2.22-16.91l-.06-6.79c0-.52-.66-1.46-1.06-1.63l-1.01-.44-.14,1.09c-.69,5.35-.8,9.85-.36,14.17l.59,5.79c-.13-.25-.24-.49-.35-.74-3.36-7.83-6.71-16.47-8.5-26.63l-.07-.41-2.06-1.01v1.33c0,4.51,1.49,12.13,2.83,15.94l2.52,7.16c.65,1.84,1.37,3.78,2.31,5.58l12.58,24.2,6.94,12.82c.04.17-.05.68-.15.86ZM303.18,203.29c-.9,7.37-3.98,18.61-6.41,25.45-4.5,12.65-10.83,24.76-18.81,36.01-2.19,3.08-3.96,5.49-6.04,7.98l-2.18,2.61-2.88,3.33-7.6,7.83-.31-.45-4.98-9.44-9.44-17.79.36-.41c8.44-1.65,21.64-9.88,27.64-15.02l3.16-2.7c1.87-1.61,3.26-2.28,4.6-2.94,1.48-.72,3.01-1.48,5.03-3.38l6.51-6.15c.43-.4.86-.78,1.28-1.16,2.23-1.99,4.54-4.04,5.23-8.2.63-3.76-.14-6.59-1.49-9.69-.07-.15-.18-.36-.32-.6-.18-.32-.61-1.07-.6-1.29,1.6-5.94,4.84-12.2,8.76-16.99l.08.14-1.58,12.87ZM345.5,163.77c-4.26.1-9.55.23-17.09,4.01-7.47,3.74-10.93,5.66-17.71,11.02-1.97,1.56-3.79,3.28-5.25,5l-2.05,2.4c-4.27,4.99-10.44,15.04-10.79,21.77h0s0,0,0,0l.34.73c.22,1.01.52,3.88-1.01,6.8-.43.83-1.09,1.34-2.01,1.57-3.47.86-9.96-2.49-14.88-5.9-1.61-1.11-2.5-1.81-2.63-2.04l-.11-.21-.13-.13c-.13-.13-.26-.26-.39-.38-.12-.12-.25-.24-.37-.36-.03-.03-.06-.07-.08-.1l-.15-.17c-.47-.39-.92-.78-1.42-1.22-.06-.05-.12-.1-.15-.14-4.82-6.07-5.92-14.16-3.01-22.19,1.39-3.84,2.58-6.03,3.97-7.33l.09-.09.06-.11c.58-1.03,1.45-2.02,2.74-3.11l.45-.38-.03-.07,3.15-2.72c1.84-1.59,3.65-3.59,5.87-6.49,1.24-1.62,1.72-3.29,2.07-4.52.16-.56.38-1.32.52-1.44,0,0,.04,0,.12.02l2,.48v.05c.58.06,1.16.16,1.72.36.75-.03,1.58.14,2.3.49l.11.06,14.14,2.17c1.51.23,3.13.4,4.65.55l5.67.56c1.54.15,3.13.31,4.63.37l8.92.35h0s.97.14.97.14c.29.04.58.08.88.09.47.02.88-.05,1.29-.12l.29-.05c.09-.01.18-.02.26-.02l1.71-.06c4.21-.05,8.57-.11,12.67-.38l5.33-.35c-2.49.99-4.89,1.05-7.66,1.12ZM428.82,128.63c-1.79,2.04-4.18,4.62-6.82,6.54l-5.64,4.09c-2.23,1.62-9.59,5.64-12.29,6.88-5.13,2.36-9.62,4.14-14.14,5.61l-2.84.92-6.08,1.77c-5.68,1.65-18.49,3.83-24.61,4.39l-3.33.3-5.9.38c-8.8.57-16.97.59-24.99.06l-3.84-.25-4.12-.34-5.56-.59-13.11-1.99c-8.85-1.35-16.98-3.84-23.77-6.1-17.7-5.89-32.68-15.7-40.07-26.22-6.26-8.92-6.51-18.97-.73-28.38-2.03,7.91-2.1,13.61,2.03,20.88,3.68,6.47,12.49,14.85,18.89,19.22,6.24,4.26,12.59,7.44,18.88,9.45l7.33,2.34,5.76,1.53c7.69,2.05,15.74,3.4,24.62,4.14l3.88.32,5.45.32c8.35.49,16.55.49,25.09,0l9.02-.53,5.46-.42,4.44-.42c8.08-.77,19.08-3.07,28.02-5.87,18.93-5.92,31.64-14.61,38.86-26.56,3.82-6.31,4.92-13.67,3.12-20.74-.45-1.76-.97-3.23-1.56-4.86,8.94,11.66,8.44,22.84-1.48,34.13Z"></path><g><g><path d="M293.01,99.69c-1.31.1-1.63.18-.55.38,1.19.65,1.27.17.55-.38Z"></path><path d="M334.83,96.96c-13.22,3.24-28.69,6.72-41.16,12.22,0,0-16.84,6.64-16.84,6.64-.17.3-13.83,4.26-12.99,5.24l7.91,4.9c6.05,3.75,6.48,6.58,16.69,8.63,17.75,3.41,38.89,5.24,56.59,2.31-2.92-9.75-5.72-20.11-7.56-30.18-.41-.7-1.32-9.9-2.64-9.76ZM305.01,127.73c-7.1,7.92-34.23-1.05-20.35-11.52,7.53-4.39,27.73.13,20.35,11.52ZM306.47,106.98l-.79-.74c-.53-.49,2.52-2.07,4.85-.61,1.88,1.41,1.19,3.67-1.12,4.25-1.39.34-.66-.77-2.94-2.9ZM308.86,113.26c6.07-.59,16.71,2.13,15.02,10.03-.43-.15-.99-.4-1.16-.59-1.68-1.95-4.16-5.14-6.8-5.85-1.34-.68-6.4-1.98-7.05-3.58ZM325.74,131.96c-3.57.25-7.15-1.2-6.84-4.01.29-2.63,5.44-3.06,8.06-2.12,3.16,1.39,2.49,6.01-1.22,6.13ZM328.03,113.19c-3.35-.13-8.39-2.39-8.7-6.03-.31-5.08,7.31-7.55,11.99-4.69,6.24,2.61,5.85,11.36-3.29,10.72Z" fill="#f5be58"></path><path d="M323.09,128.64c.35.22,1.71-.15,1.65-.56-.72-1.58-3.58-1.24-1.65.56Z"></path><path d="M390.38,74.9c-10.7-5.72-22.85-5.99-33.86-9.55-9.37-1.01-17.75.95-27.02.9,1.19,6.04,5.67,20.98,7.25,27.13.09.33.85.96,1.34.82,16.02-4.38,37.1-10.84,52.17-17.6,1.13-.81,1.19-1.12.11-1.7ZM342.48,68.79c1.08.97,1.42,3.28-.69,2.33l-1.92-.91-.93.47,3.85,1.61c-2.17,2.76-7.41,1.85-7.62-1.7.24-1.72,3.96-4.02,7.31-1.8ZM336.26,88.13s5.1-1.86,5.1-1.86c5.27-3.24-2.34-7.57-5.9-8.19l-.16-.74,3.28.36c12.53,2.28,9.37,14.09-2.32,10.43ZM350.11,80.57c-3.11-10.9,15.14-13.41,21.17-7.28,7.58,9.4-17.54,16.77-21.17,7.28Z" fill="#f5be58"></path><path d="M262.9,119.4c14.77-5.75,32.25-14.8,47.47-18.97,4.5-1.08,17.17-4.12,21.5-5.01-18.62-6-38.13-9.35-57.36-13.06-3.46-.63-7.38-1.72-10.37-2.55-5.21,1.74-7.33,8.58-10.16,12.83-.17-2.58.37-4.34,1.13-6.67-15.16,7.63-5.86,30.61,7.78,33.42ZM264.23,112.11c-.27-.6-.63-1.54-.93-2.38,1.12-.57,2.83-.78,3.59-.25,1.89,1.95-1.03,3.76-2.66,2.63ZM289.46,97.88c2,.05,7.4-.01,7.56,2.51-.48,6.69-14.61.57-7.56-2.51ZM286.48,88.28l1.03-.16c3.71,4.4,11.55,3.5,16.48,3.98l-1.8,1.29c-4.36,1.21-16.3,1.62-15.71-5.12ZM258.3,98.18c1.82-8.54,13.37-10.57,19.99-6.32,3.94,2.4,6.74,7.43,3.57,10.66-4.94,5.55-24.93,6.37-23.56-4.34Z" fill="#f5be58"></path><path d="M389.77,112.3c5.54,1.21,18.31,8.84,22.81,3.45,5.71-10.55,3.67-18.4-3.77-27.58-2.27-2.89-11.5-11.89-15.51-10.31-16.03,7.72-34.96,13.39-52.24,17.4,16.36,4.51,32.77,11.32,48.71,17.05ZM386.62,103.89l3.19.05.28,2.87c-1.93-.17-4.39.05-3.47-2.92ZM398.37,110.83c-1.41-1.03-1.23-3.48.65-3.64,1.05.15,1.23,2.29,3.23,1.56l-1.29-1.89c8.98-2.36,6.45,8.87-2.6,3.96ZM398.72,91.92c-1.41,2.84,0,3.55,2.54,4.39,3.48,1.04,3.89-2.12,5.88-2.28,2.05,5.91-6.8,6.7-9.98,3.51-2.57-1.57-1.99-7.41,1.56-5.62ZM390.14,83.81c2.17.55,6.64,1.8,3.62,4.62-7.59,3.36-10.95-5.42-3.62-4.62ZM368.13,88.53c6.15-1.07,15.02-1.32,17.11,5.94-.81,6.11-11.02,7.32-17.53,5.27-8.42-3.19-10.23-8.88.42-11.21Z" fill="#f5be58"></path><path d="M363.63,136.06c15,1.67,29.82-8.59,42.43-15.42l-.05-.79c-19.81-5.4-41.81-15.82-61.58-21.16l-5.94-1.84c-.2.01-.81.55-.81.74,1.09,3.02,3.02,12.51,3.7,15.77.66,3.08,9.62-4.91,3.45-7.23-.42-.38-.93-.66-1.49-.77l-1.04-1.05c3.85-1.78,11.78,3.81,6.99,8.24-3.66,3.46-7.77,1.7-7.24,3.73,1.27,4.95,3.91,15.08,5.23,19.99.93,2.34,12.89-.76,16.35-.2ZM394.54,122.08c.31,3.09-4.02,3.72-6.18,2.89-.4-.58.79-1.79,1.3-2.15.85-.72-2.19.03-3.52-.55-1.22-4.16,8.4-3.12,8.39-.19ZM356.55,117.98c5.09-5.25,28.65-4.43,24.83,6.53-2.77,5.87-11.47,6.72-17.02,5.68-5.51-.64-12.81-6.8-7.81-12.2ZM348.68,128.73c1.66-.54,3.79,1.47,6.64,2.65,1.67.69,3.71.91,5.68,1.34.92.16,1.31.2.84,1.24-10.3,2.95-14.33-4.84-13.16-5.23Z" fill="#f5be58"></path><path d="M326,65.87c-14.52-.74-32.95.67-46.86,5.77-.61.2-17.02,6.32-12.2,7.17l29.21,5.12c13.03,2.36,24.73,4.91,37.32,9.28.2.07.78-.46.76-.64l-1.57-5.75s-3.77-13.45-3.77-13.45c-1.03-2.12-.59-6.82-2.88-7.5ZM291.4,74.26c-1.05.06-2.23.03-3.25-.6-.65-.4-.41-1.97.04-2.78l3.66.61-.46,2.76ZM300.2,70.75c5.44-3.09,20.64-2.79,18.56,6.51-4.19,9.78-28.89,2.6-18.56-6.51ZM326.34,85.66c-.82,2.48-8.81,2.53-8.94-.71-.07-1.65,2.2-2.26,2.24-2.15.58,2.02,1.07,2.92,3.32,2.23-.43-.57-2.27-2.08-1.4-2.87,2.08-.43,5.35.98,4.79,3.49Z" fill="#f5be58"></path><path d="M391.34,86.75l.72-1.26-1.96.68c-.17.06.48.29,1.23.58Z"></path></g><g><path d="M397.35,75.46s-.08-.09-.13-.18c-1.33-.52-2.64-1.1-3.83-1.9-.09-.02-.18-.05-.26-.08-7.9-4.28-16.22-6.35-25.17-6.95l-5.01-.34c-.51-.03-1.52-1.18-2.09-1.42-8.57-3.9-21.81-.43-30.56-1.05-.12-.02-.21-.08-.28-.2-1.29.03-2.56-.04-3.86-.15-.16.06-.33.1-.52.13-18.5-1.12-37.82.54-54.74,8.51-5.08,2.9-6.45,3.96-7.17,3.91-.68.67-1.42,1.32-2.24,1.8-.03.3-.16.58-.41.83l-2.57,2.54c-2.24,2.22-8.62,4.17-11.93,8.3-8.53,11.45.6,22.79,8.87,30.4.42.2.82.46,1.18.77.36.3.7.62,1.05.93.6.26,1.19.54,1.76.84.3.15.56.35.8.57.36.1.71.22,1.05.38,3.42,1.93,9.59,4.48,12.51,7.02,19.09,13.49,49.24,10.78,71.51,10.19.01,0,.02,0,.04.01,1.48-.35,3.08-.45,4.55-.31l8.11-.75c20.74,1.77,33.57-7.17,50.37-16.41,1.12-1.12,2.39-2.09,3.73-2.95.04-.05.08-.09.12-.14,1.14-1.47,2.05-3.12,3.3-4.49l3.06-7.33c4.13-14.31-10.99-25.56-21.24-32.49ZM356.52,65.35c11.01,3.56,23.16,3.83,33.86,9.55,1.07.58,1.02.89-.11,1.7-15.07,6.76-36.14,13.22-52.17,17.6-.49.14-1.25-.49-1.34-.82-1.58-6.16-6.06-21.09-7.26-27.13,9.27.05,17.65-1.91,27.02-.9ZM279.14,71.64c13.91-5.1,32.34-6.51,46.86-5.78,2.3.68,1.85,5.38,2.88,7.5,0,0,3.77,13.45,3.77,13.45l1.57,5.75c.01.18-.56.71-.76.64-12.6-4.37-24.29-6.92-37.32-9.28l-29.21-5.12c-4.82-.84,11.59-6.97,12.2-7.17ZM255.12,85.98c-.76,2.34-1.31,4.09-1.13,6.67,2.83-4.26,4.95-11.09,10.16-12.83,2.99.83,6.9,1.92,10.37,2.55,19.23,3.7,38.74,7.06,57.36,13.06-4.33.89-17,3.92-21.5,5.01-15.23,4.17-32.71,13.22-47.47,18.97-13.64-2.81-22.94-25.8-7.78-33.42ZM288.43,134.6c-10.21-2.06-10.64-4.88-16.69-8.63l-7.91-4.9c-.84-.98,12.83-4.95,12.99-5.24,0,0,16.84-6.64,16.84-6.64,12.47-5.5,27.94-8.98,41.16-12.22,1.32-.13,2.23,9.07,2.64,9.76,1.83,10.07,4.64,20.43,7.56,30.18-17.7,2.93-38.84,1.1-56.59-2.31ZM363.63,136.06c-3.46-.56-15.43,2.54-16.35.2-1.32-4.91-3.96-15.03-5.23-19.99-.53-2.03,3.58-.27,7.24-3.73,4.79-4.43-3.14-10.02-6.99-8.24l1.04,1.05c.56.11,1.07.39,1.49.77,6.18,2.32-2.78,10.31-3.45,7.23-.67-3.26-2.61-12.75-3.7-15.77,0-.18.62-.72.81-.74l5.94,1.84c19.77,5.34,41.77,15.76,61.58,21.16l.05.79c-12.61,6.84-27.43,17.1-42.43,15.42ZM412.57,115.74c-4.5,5.39-17.27-2.24-22.81-3.45-15.94-5.73-32.35-12.54-48.71-17.05,17.28-4.01,36.22-9.69,52.24-17.4,4.01-1.58,13.24,7.42,15.51,10.31,7.44,9.19,9.48,17.04,3.77,27.58Z"></path><path d="M368.13,88.53c-10.65,2.33-8.84,8.02-.42,11.21,6.51,2.05,16.72.84,17.53-5.27-2.1-7.26-10.97-7.01-17.11-5.94Z" fill="#dd000d"></path><path d="M284.67,116.21c-13.89,10.47,13.24,19.45,20.35,11.52,7.38-11.39-12.81-15.91-20.35-11.52Z" fill="#dd000d"></path><path d="M331.32,102.47c-4.68-2.86-12.3-.39-11.99,4.69.31,3.64,5.35,5.9,8.7,6.03,9.15.64,9.53-8.11,3.29-10.72Z" fill="#dd000d"></path><path d="M326.95,125.82c-2.61-.94-7.77-.51-8.06,2.12-.31,2.81,3.27,4.26,6.84,4.01,3.71-.13,4.37-4.74,1.22-6.13ZM323.09,128.64c-1.93-1.8.93-2.14,1.65-.56.06.41-1.3.78-1.65.56Z" fill="#005b1c"></path><path d="M322.72,122.69c.17.2.73.44,1.16.59,1.69-7.9-8.95-10.62-15.02-10.03.65,1.61,5.71,2.9,7.05,3.58,2.64.71,5.13,3.89,6.8,5.85Z"></path><path d="M309.41,109.88c2.31-.58,2.99-2.84,1.12-4.25-2.33-1.46-5.37.12-4.85.61l.79.74c2.28,2.13,1.55,3.25,2.94,2.9Z" fill="#005b1c"></path><path d="M258.3,98.18c-1.38,10.71,18.62,9.89,23.56,4.34,3.17-3.24.37-8.27-3.57-10.66-6.62-4.24-18.17-2.22-19.99,6.32Z" fill="#dd000d"></path><path d="M302.19,93.4l1.8-1.29c-4.92-.48-12.77.42-16.48-3.98l-1.03.16c-.6,6.73,11.35,6.33,15.71,5.12Z"></path><path d="M289.46,97.88c-7.05,3.08,7.07,9.2,7.56,2.51-.16-2.52-5.55-2.46-7.56-2.51ZM292.46,100.07c-1.08-.2-.76-.28.55-.38.72.55.64,1.03-.55.38Z" fill="#005b1c"></path><path d="M266.9,109.48c-.76-.53-2.47-.31-3.59.25.3.84.66,1.78.93,2.38,1.63,1.13,4.55-.68,2.66-2.63Z" fill="#005b1c"></path><path d="M397.16,97.54c3.17,3.19,12.03,2.4,9.98-3.51-2,.16-2.4,3.32-5.88,2.28-2.54-.84-3.94-1.55-2.54-4.39-3.55-1.78-4.13,4.06-1.56,5.62Z"></path><path d="M400.96,106.87l1.29,1.89c-2,.72-2.18-1.42-3.23-1.56-1.89.16-2.06,2.61-.65,3.64,9.05,4.91,11.58-6.32,2.6-3.96Z" fill="#005b1c"></path><path d="M393.76,88.42c3.02-2.81-1.44-4.06-3.62-4.62-7.33-.8-3.98,7.97,3.62,4.62ZM390.1,86.16l1.96-.68-.72,1.26c-.75-.29-1.41-.52-1.23-.58Z" fill="#005b1c"></path><path d="M386.62,103.89c-.92,2.97,1.54,2.76,3.47,2.92l-.28-2.87-3.19-.05Z" fill="#005b1c"></path><path d="M364.36,130.18c5.55,1.04,14.25.19,17.02-5.68,3.82-10.96-19.74-11.78-24.83-6.53-5,5.4,2.31,11.57,7.81,12.2Z" fill="#dd000d"></path><path d="M361.83,133.96c.47-1.04.09-1.08-.84-1.24-1.97-.43-4.01-.65-5.68-1.34-2.84-1.17-4.97-3.19-6.64-2.65-1.18.38,2.85,8.18,13.16,5.23Z"></path><path d="M386.14,122.28c1.33.58,4.36-.18,3.52.55-.51.35-1.71,1.57-1.3,2.15,2.16.84,6.49.21,6.18-2.89,0-2.92-9.61-3.96-8.39.19Z" fill="#005b1c"></path><path d="M318.76,77.26c2.08-9.3-13.12-9.59-18.56-6.51-10.33,9.1,14.37,16.29,18.56,6.51Z" fill="#dd000d"></path><path d="M321.55,82.16c-.87.78.97,2.3,1.4,2.87-2.25.69-2.74-.21-3.32-2.23-.04-.11-2.31.5-2.24,2.15.14,3.24,8.12,3.18,8.94.71.56-2.52-2.71-3.92-4.79-3.49Z" fill="#005b1c"></path><path d="M288.15,73.67c1.01.62,2.19.66,3.25.6l.46-2.76-3.66-.61c-.45.81-.7,2.38-.04,2.78Z" fill="#005b1c"></path><path d="M371.28,73.3c-6.03-6.13-24.27-3.63-21.17,7.27,3.63,9.5,28.75,2.12,21.17-7.27Z" fill="#dd000d"></path><path d="M338.58,77.7l-3.28-.36.16.74c3.56.62,11.17,4.95,5.9,8.19,0,0-5.1,1.86-5.1,1.86,11.69,3.66,14.86-8.14,2.32-10.43Z"></path><path d="M342.79,72.28l-3.85-1.61.93-.47,1.92.91c2.11.95,1.76-1.36.69-2.33-3.36-2.22-7.07.08-7.31,1.8.21,3.55,5.45,4.46,7.62,1.7Z" fill="#005b1c"></path></g></g></g><path d="M145.53,232.88c3.14,1.78,6.7,3.8,11.18,7.06,5.4,3.93,9.67,7.03,16.73,8.09,9.18,1.39,20.44-5.06,26.83-12.14,4.55-5.04,8.18-11.33,10.48-18.19,3.68-10.94.95-22.2-3.79-28.24l.81,3.33c.29,1.21.48,2.82.55,3.85.39,5.91.26,10.06-1.54,16.32-2.21,7.71-6.29,14.23-12.45,19.93l-1.5,1.39c-.45.42-1.58.42-2.01,0l-.56-.55.52-.66.58-.67,1.87-2.09c3.15-3.52,5.74-7.49,7.93-12.15,4.42-9.43,5.1-18.61,2.14-29.49-.06,5.2-.35,8.42-2.48,13.59-4.74,11.47-19.29,14.71-25.32,15.56-4.38.62-11.77.33-15.81-.64l-3.9-.93c-4.52-1.08-12.1-4.23-16.24-6.75-9.28-5.66-14.89-11.98-19.41-22.06.68,3.58,2.99,10.05,9.1,17.24,5.76,6.78,11.6,11.07,20.17,14.81,5.59,2.44,11.13,4,16.93,4.77,9.98,1.33,21.17-2.11,28.49-8.75.67-.61,1.8-.49,1.81-.49.18.02.52.12.76.55.18.33.37,1.01.13,1.55-5.9,13.14-21.22,20.79-36.42,18.18l-.49-.08-.16-.47c-.18-.56-.49-1.5.22-1.96.54-.34,1.07-.03,1.43.26l6.61-.28c6.22-.27,14.77-4.14,19.97-8.9-14.19,6.73-29.8,5.19-47.66-4.68-2.65-1.46-5.29-3.34-8.3-5.89-3.83-3.25-9.12-9.24-11.36-13.63l-2.97-5.87c-.94.98-1.93,3.25-2,3.98-.45,5.1,6.23,15.23,10.89,20.47,7.73,8.71,12.37,11.34,18.24,14.67Z" fill="#dd000d"></path><path d="M134.31,169.22l8.51,1.41,3.03.46,7.12,1.02c6.57.95,15.85-.32,21.21-5.25l-.23-.27c-.14.03-.28.06-.42.09-.77.16-1.5.31-1.92.35l-4.01.39c-4.87.47-10.9-.07-15.34-1.36-10.21-2.97-16.26-8.95-17.98-17.76-.24-1.25-.3-2.27-.34-3.08,0-.06,0-.12,0-.17-2.33,6.62-2.54,16.71-1.27,23.09.2.34,1.28,1.02,1.65,1.08Z" fill="#fff"></path><path d="M159.57,183.87c-3.57,0-7.16.96-9.94,2.5-3.15,1.74-4.51,2.73-6.86,5.56-.05.06-.1.13-.06.32.36,1.7,5.43,5.07,7.94,6.33.61.31.61.31,1.29-.81.56-.93,1.33-2.2,2.91-3.5,2.33-1.91,4.68-3.31,7.19-4.27l6.89-2.65c.06-.03.19-.15.31-.27-.02-.02-.04-.04-.05-.05-2.64-2.23-6.11-3.17-9.62-3.17Z" fill="#f16f6d"></path><path d="M105.87,188.31c-3.69-4.28-5.47-8.25-5.6-12.49l-.11-3.68c-3.02,5.68-2.98,11.41.28,15.87,2.14,2.94,5.31,4.84,9.68,5.81l3.95.88.18-.38-1.97-1.11c-2.89-1.62-4.93-3.18-6.41-4.91Z" fill="#dd000d"></path><path d="M116.8,190.8c.15-.07.51-.36.67-.55l-.72-4.23c-.05-.27-.35-.9-.52-1.08l-3.27-1.53c-3.91-1.83-6.94-5.02-8.32-8.76l-2.06-5.6-.38-.13c-.64.86-1.21,1.73-1.71,2.61l1.72,4.89c2.49,7.11,5.96,11.09,13.16,15.07l1.44-.69Z" fill="#dd000d"></path><path d="M128.66,21.44l-5.07-.87c-7.24-1.25-14.8,0-20.73,3.41-4.18,2.41-7.76,5.42-10.62,8.94-2.36,2.9-5.05,7.94-6.12,11.46-2.42,7.99-1.87,14.93,1.72,21.83,2.01,3.87,4.89,6.87,8.8,9.18,6.45,3.82,11.72,4.27,18.63,3.77.81-.06,1.52-.43,2.13-1.1l2.29-2.54-2.19.28c-5.3.69-13.19-1.19-16.87-4.02l-5.08-3.9.18-2.45,8,4.35c3.86,2.1,9.03,3.06,13.84,2.59,1.73-.17,6.08-.73,9.2-2.26l4.05-1.98c-7.28-3.08-11.98-7.27-16.17-14.37l-.84-1.43,1.82.21c.61.06.98.09,1.25.38,5.62,6.14,9.6,10.06,17.37,12.76,13.46,4.69,27.82.54,36.58-10.57,1.19-1.51,1.72-2.37,2.19-3.12.47-.76.92-1.48,1.88-2.64l1.57-1.89-.11,2.46c-.02.4-.1,1.78-.46,2.52l-1.13,2.38s-.88,1.85-1.51,2.58l-2.49,2.86c-.07.09-.18.28-.27.45.05.04.1.08.15.12l1.81,1.29c6.18,4.41,13.18,3.51,19.81,2.21l2.41-.47-1.64,1.84c-2.53,2.83-9.71,3.57-13.35,2.81l-3.35-.7c-2.8-.58-6.16-2.93-8.04-4.94-.22.05-.55.18-.67.26l-3.11,2.34c2.91,1.26,5.26,2.51,7.37,3.91,2.26,1.51,3.18,2.94,3.79,3.88.6.93.7,1.04,1.29,1.01,4.21-.23,8.66-.59,12.72-2.18,7.09-2.79,12.43-9.18,13.29-15.92.52-4.05-.78-10.87-1.98-12.09l-1.09-1.11c-.27-.28-.39-.66-.55-1.27-.06-.21-.15-.57-.21-.67-3.81-4.46-5.58-5.78-10.9-9.03l-5.63-3.44c-1.26-.77-2.17-1.33-1.74-2.18.38-.77.92-.79,4.92.83l2.27.82-.3-2.02c-1-6.79-2.42-11.58-6.73-15.98-9.71-9.91-24.11-7.66-33.31-.32-1.03.82-1.9,1.68-2.91,2.67l-.41.4c-.85.86-2.93,3.64-2.98,4.55.05,0,.13,0,.24,0,3.16-.25,6.93.13,9.83.99l1.27.38-.9.98c-.31.34-1.32.67-1.77.67-5.66-.1-11.74.21-17.88,3.07-3.1,1.44-10.52,5.18-12.45,8.62-.19.34-.66.61-1.22.37-.41-.17-1.19-.77-.97-1.53,1.1-3.71,7.94-7.91,11.04-9.43Z" fill="#fff"></path><path d="M138.19,70.32l-2.12-.43c-.24-.02-1.26.26-1.8.51l-5.36,2.54c-3.12,1.48-7.21,5.06-10.08,8.12,2.61,4.06,2.22,7.65,1.8,11.44-.17,1.54-.34,3.11-.32,4.79.04-.04.08-.08.12-.12,1.35-1.33,2.53-2.48,4.25-3.43,7.82-4.31,18.68-7.7,27.02-8.43l4.23-.37c5.01-.44,13.69.39,18.97,2.5l1.16.46-.54-4.11-.52-3.63c-.04-.28-.05-.64-.06-1.06-.01-.48-.04-1.37-.15-1.6-1.73-2.79-4.86-5.57-8.16-7.23-5.49-2.77-5.89-2.62-8.46-1.65-1.67.63-4.19,1.59-9.15,2.34l-3.47.52c-4.68.7-10.4,4.09-13.63,7.07-.78.72-1.65,1.19-2.24,1.45l-1.98.89.88-1.98c1.83-4.14,6.04-6.62,9.6-8.58Z" fill="#fff"></path><path d="M18.62,112.26v.09c.03.28.04.56.06.85.09,1.47.2,3.13.59,4.31l1.93,5.85c1.7,5.16,5.44,22.04,5.66,27.3l.02.4c.21,4.75.26,9.45-.8,11.59l-.85,1.71-9.74-25.92c-1.41-3.77-3.92-8.49-6.33-9.42-.61-.23-1.16-.21-1.73.09-3.18,1.66-.66,11.57.28,15.3l2.05,8.24c1,4.03,1.95,7.84,2.69,11.9l1.35,7.46c1.4,7.73,4.12,11.4,8.23,16.95.41.55.82,1.11,1.26,1.7l5.11,6.97.29.25c.26.5.45,1.04.6,1.59,0,.05,0,.09.02.14.35,1.47.64,2.94.91,4.42.49,5,.03,9.71-1.4,14.33l-3.44,11.11q-.73,2.37,1.86,6.22c.27.4.61.8.99,1.21.3.45.66.85,1.06,1.21.13.18.27.36.46.55.28.29.61.54.95.78.85.89,1.98,1.58,3.17,2,.12.1.23.18.33.22,7.38,2.93,12.78,4.09,20.2,1.83,3.5-1.06,6.62-3.03,9.55-6.02,1.76-1.79,2.99-3.49,3.7-5.13l-.17.18-3.74-10.2c-3.37-9.19-4.81-16.93-4.51-24.26-.44.15-1.08.44-1.59.67-1.93.88-4.57,2.07-7,1.63l-.2-.04-.6-.48s-.02-.02-.03-.02l-.09-.07h0c-.58-.55-.22-1.07-.14-1.17.32-.4.7-.35.99-.22l4.64-2.21c9.39-4.47,16.26-20.79,18.57-28.79l1.87-6.45c1.33-4.61,1.2-11.37-3.56-15.28-2.75-2.25-8.47-4.05-11.18-1.75-1.9,1.62-2.64,4.28-1.92,6.96.91,3.42,2.75,4.95,4.1,6.07.91.75,1.62,1.35,1.64,2.27.01.83-.59,1.47-1.11,1.93l-4.11,3.64-5.29,4.86-.9-.17h0s-1.3-.28-1.3-.28l.17-.8c.05-.24.15-.39.28-.49l1.24-1.52c-.24-.09-.58-.2-.89-.3-.93-.3-2.33-.75-4.12-1.56-2.26-1.03-5.08-2.09-8.36-3.16-.77-.25-1.58-1.41-1.33-2.21l1.14-3.61c.76-2.4.23-5.07-.28-7.65l-.26-1.29c-.05-.26.01-.53.19-.76.35-.46,1.33-.85,1.71-.88,2.27-.18,4.21.01,5.92.18,3.74.37,6.44.64,10.24-3.04,1.26-1.22,1.7-1.92,1.76-2.14.27-1.01-.07-2.98-.64-3.69-2.35-2.94-5-5.6-8.41-5.06l-12.34,1.93c-1.57.24-4.34,1.02-5.29,3.53-1.47,3.86-2.44,11.15-2.97,22.27.2.77-.2,1.06-.46,1.16-.83.33-1.25-.58-1.61-1.38l-.06-.18c-1.32-6.83-.58-15.83,1.9-22.93.33-.95.37-1.79.33-2.93l-.54-14.97c-.18-5.06-.56-9.58-3.44-13.63-.78-1.09-2.39-1.91-3.71-1.89-.96.03-1.71.34-2.27.97-1.78,1.97-1.45,6.6-1.27,9.08ZM28.9,161.53c.33-.15.66-.1,1,.15,3.77.92,6.95,3.24,9.83,5.62,4.88,4.03,7.1,10.22,6.59,18.4l-.03.46-2.33,1.24-.76-6.26c-.96-7.89-5.18-11.69-12.16-15.58h0c-.83-.47-1.77-1.17-2.39-1.67l-.3-.24v-.39c-.04-.82-.06-1.46.56-1.74Z" fill="#ffc2a4"></path><path d="M6.7,108.59c-1.15.1-1.97.53-2.49,1.31-.8,1.21-1.35,3.92.6,9.95l1.83,5.67c.43-.07.86-.1,1.26-.1,6.67,0,9.74,8.69,11.12,12.59l2.27,6.41,2.14,5.47c-1.11-8.19-2.84-16.59-4.8-23.26-1.15-3.9-2.44-7.23-4.14-11.33-1.04-2.49-4.4-7.01-7.79-6.72Z" fill="#ffc2a4"></path><path d="M81.21,55.19c-.02-.53-.04-1.24-.09-1.74l-.05.02-3.67,2.15c-.58.34-1.18.74-1.75,1.12-.3.2-.59.39-.89.59l-1.74,1.13c-.45.29-.9.58-1.35.86-1.64,1.04-3.18,2.03-4.68,3.17l-5.25,3.98c-1.41,1.07-2.74,2.16-3.94,3.23l-4.09,3.64c-3.12,2.79-5.88,5.56-8.43,8.47l-2.72,3.11-3.25,3.8c-.55.63-1.11,1.28-1.59,1.96l-8.24,11.57c-.22.31.2,1.15.68,2.13.71,1.44,1.68,3.41,2.02,6.17.25,2,.4,3.73.46,5.29l.43,10.51.1,4.69c1.45-.58,3.09-1.22,4.68-1.47l10.42-1.62c5.86-.91,9.06,1.26,12.6,5.33.63.72,1.68,2.67,1.81,3.78l.27,2.47,2.71.05c3.34.06,6.86,1.61,9.68,4.25,4.59,4.31,5.61,11.22,3.03,20.54-1.42,5.14-5.03,16.22-8.51,21.34l-6.59,9.7c-1,1.47-.71,12.29,1.12,17.35.54,1.49.95,1.64.95,1.65,1.57.34,3.87.97,5.92,2,1.17.59,1.99,1.28,2.59,1.78.33.28.78.65.93.67,0,0,.08-.03.23-.18l.96-.98c1.47-1.51,2.99-3.07,4.52-4.35,10-8.4,15.42-10.98,27.12-16.49l-2.29-.85c-4.55-1.69-7.98-5.02-9.65-9.37-1.89-4.92-1.4-10.76,1.34-16.02.95-1.82,2.29-3.57,3.69-4.8.56-.49,1.79-.73,2.59-.65.52.06.9.24,1.14.56.41.55,1.19,1.85,1.45,2.55l1.43,3.96c1.84,5.1,6.1,8.22,8.54,8.81.71.17,1.01.06,1.05.02.29-.61.48-1.49.43-1.71-1.29-5.39-2.08-9.48-2.57-15.59l-.43-5.35-.29-4.29s-.02-.05-.05-.1l-1.12.55c-2.53,1.24-5.27,1.17-7.71-.2-3.37-1.89-5.7-5.28-6.39-9.31-.88-5.08.19-9.8,3.35-14.87,2.05-3.28,4.88-5.52,8.19-6.47,2.06-.59,3.78.1,4.92.56.31.12.72.29.93.33.02-.05.04-.14.06-.27l1.33-8.43.51-3.38c.17-1.13.34-2.33.43-3.43l.44-5.49c.03-.38-.18-1.52-.32-1.77-2.23-3.43-2.04-4.81-1.63-7.83.18-1.34.41-3,.5-5.39.06-1.45-.37-4.63-1.64-5.77-.35-.31-.71-.43-1.16-.36-1.52.23-3.41.51-5.07.41-7.73-.47-14.65-3.38-20.03-8.42-4.27-4.01-7.27-10.23-8.23-17.07-.09-.62-.11-1.42-.14-2.2Z" fill="#00aca2"></path><path d="M25.11,219.26c1.59-5.97,3.09-13.59.49-19.18-.91-1.96-2.65-4.18-4.66-6.74-3.84-4.9-8.63-11.01-10.16-18.76l-1.12-5.65-1.8-9.65c-.15.86-.27,1.72-.34,2.39l-.5,4.88-.5,5.8c-.42,4.9-.4,12.21.05,17.38l.4,4.61,1.03,8.58c1.15,9.62,4.74,21.73,7.71,29.35l.32-1.74c.7-3.78,3.77-7.89,7.45-9.98.7-.4,1.51-1.03,1.63-1.28Z" fill="#00aca2"></path><path d="M42.78,158.32c.57.26,1.62.72,2.64,1.16,2.61,1.14,5.85,2.55,7.34,3.33,1.15.6,2.87.77,3.77.01l3.92-3.3c.02-.12.02-.31,0-.44-3.54-3.12-5.44-7.27-5.12-11.21-.01-.02-.03-.04-.04-.06-3.09,1.4-5.89,1.05-8.39.74-1.24-.16-2.42-.3-3.58-.25l.35,2.07c.52,3.04-.3,5.86-.74,7.37-.05.19-.12.4-.16.57Z" fill="#00aca2"></path><path d="M206.34,49.14c.34,2.61.36,5.23.07,7.6-.77,6.3-4.3,11.89-9.94,15.74-5.21,3.55-11.76,5.29-18.03,4.77-.14.08-.38.26-.52.41l1.75,9.49c.31,1.65-.27,3.62-.93,5.91-1.38,4.77-3.1,10.7,1.84,17.31.47.63,1.48,1.2,2.3,1.3,5.55.68,12.89,2.91,16.33,9.66,4.32,8.47-.47,18.65-6.74,24.52-1.57,1.47-3.27,2.58-4.63,3.48-.75.5-1.71,1.13-2.17,1.57.04.05.09.09.13.14.69.82,1.34,1.65,1.98,2.49,1.43.18,2.97.21,4.66-.1,4.94-.9,9.43-5.07,8.9-7.38-.17-.72-.95-1.22-1.62-1.57,1.03,4.24-2.32,2.86-2.85-.24-.34-1.96,1.51-3.27,3.45-3.5,1.35-.15,3.11,1.01,3.74,2.21,3.98,7.54-3.1,14.83-11.33,17.8,3.87,6.37,6.53,12.64,8.31,17.83.01,0,.05.18.07.18.14.43.2.56.27.83,0,0,0,.01,0,.02.06.19.13.38.19.57.17.32.51.62,1.48,1.38l2.15,1.68,3.47,2.76c.67.54,2.7-.09,4.85-.76,2.67-.83,5.96-1.85,9.6-1.85,2.1,0,4.32.34,6.6,1.26,1.74.7,3.3,1.65,4.56,2.42,1.05.64,2.48,1.51,2.86,1.39l3-2.82c1.77-1.66,4.54-2.9,8.23-3.7.35-.07.95-.66,1.64-1.34,2.16-2.13,6.19-6.08,16.31-9.3,2.09-.66,3.45-.95,4.44-1.16q2.5-.53,7.64-6.2c1.44-1.59,2.96-4.4,3.6-6.59-.25-.13-.65-.29-1.11-.44l-10.65-3.35c-4.16-1.31-12.76-5.08-16.38-7.06-17.12-9.32-26.84-19.26-29.72-30.39-2.66-10.27.97-21.34,9.71-29.6,2.49-2.35,4.06-4,5.32-5.33,2.78-2.93,4.32-4.55,11.36-9.17.03-.02.06-.05.1-.09-1.38-1.95-11.72-9.59-14.99-11.77l-2.34-1.56c-7.47-4.99-17.97-10.3-28.29-14.33.07.33.21.71.39,1.21.33.91.75,2.05.96,3.66Z" fill="#00aca2"></path><path d="M114.65,128.03c-.54-.65-1.24-.99-2.13-1.04-3.56-.2-7.12,3.8-8.9,7.62-2.15,4.61-2.95,11.52,1.88,15.83,1.64,1.47,3.34,1.59,4.47,1.43,1.66-.23,3.27-1.22,4.1-2.52.45-.7.71-1.51,1.01-2.45.15-.47.31-.97.51-1.5l.23-.62.66.09c.88.12.98,1.28,1.02,1.77v.07s.02,5.84.02,5.84c.03,8.15,1.35,20.42,4.25,29.47,1.63,5.08,4.27,9.98,7.86,14.56,4.45,5.67,14.12,12.77,25.71,15.87,7.51,2.01,13.18,2.53,19.59,1.82,9.83-1.1,17.93-5.38,21.65-11.45,1.43-2.34,2.21-5.15,2.79-7.6.91-3.87.72-8.14-.52-12.54l-.02-.04c-.31-1-.67-2.02-1.05-3.13-.13-.32-.17-.52-.3-.84.02,0-.05-.11-.03-.1-1.79-4.99-4.38-10.9-8.09-16.85-5.11,1.06-10.15.31-12.86-3.19-.27-.34-.47-.68-.63-1.01-.07.27-.16.56-.28.85-1.16,2.74-3.65,4.56-6.74,5.55,2.34-.24,4.79-.64,7.72-1.13,1.49-.25,1.98.56,2.13.92.79,1.94-2.35,6.1-3.82,7.13-1.76,1.22-3.3,1.93-4.54,2.5-2.22,1.02-2.47,1.26-2.28,2.13.19.88.93,2.04,1.32,2.24l3.65,1.86c1.63.83,2.94,2.3,3.4,3.83.35,1.17.23,2.34-.37,3.4-.63,1.11-2.68,2.5-3.76,2.93l-7.71,3.06c-3.5,1.39-6.05,2.89-8.01,4.73-.2.19-1.06,1.17-1.6,1.86,1.74.44,4.85.31,6.79,0l3.37-.54c.64-.1,1.5.57,1.63,1.12.11.46-.16.91-.61,1.05l-1.86.56c-1.81.55-3.67,1.13-5.58,1.36-.78.09-1.54.14-2.29.14-11.53,0-19.89-10.74-24.01-21.28-4.47-11.47-5.17-26.83-1.78-37.78l-1.52,1.03c-.43.29-.84.6-1.35,1l-.99.76-1.76-1.7,2.19-2.22c3.75-3.79,10.11-5.93,14.98-2.69l2.01,1.34-6.8.51c-.43,1.35-.47,7.98,3.44,12.89,2.93,3.69,6.76,5.92,10.55,7.25-4.62-2.43-7.68-6.45-6.47-11.71.3-1.32,1.7-2.9,3.04-3.1,1.93-.29,4.05.51,4.24,2.48.29,3.13-2.59,5.33-2.69.97-.56.51-1.19,1.19-1.16,1.93.09,2.37,5.51,5.23,10.51,4.82,2.14-.18,3.9-.8,5.49-1.53-3.64-.41-7-1.7-9.4-4.21-4.31-4.49-4.48-11.51-.42-17.08l2.43-3.22-1.19,6.12c-.9,4.61-1.82,9.37,2.64,12.58,4.59,3.31,10.67,2.46,14.84,1.52,6.07-1.35,11.2-3.85,15.71-7.63,6.35-5.33,10.79-14.42,7-21.47-3.33-6.17-12.18-8.21-19.47-7.49-4.84.48-11.37,2.58-15.18,4.89l-5.49,3.32-1.89-1.53,2.48-2.11c2.13-1.81,4.41-3.23,6.58-4.48-.77-.4-1.47-.93-2.06-1.59-1.97-2.18-2.45-5.21-2.24-7.32.54-5.42,4.14-9.24,8.74-9.29.03,0,.07,0,.1,0,2.04,0,3.73.65,5.03,1.93.44.43.8.91,1.1,1.41.02-.61.06-1.22.14-1.85.17-1.32.55-2.66.88-3.84.37-1.31.93-3.28.47-3.47-1.56-.65-4.04-1.49-5.57-1.76l-2.96-.52c-3.86-.68-8.88-.85-12.51-.44l-4.37.5c-4.86.56-11.82,2.58-15.9,4.2-4.5,1.79-9.73,4.32-10.9,6.08-.77,1.15-.88,3.03-.9,4.34-.04,3.92-.25,6.95-.66,9.8l-2.18,15.16-1.26,7.49-2.18.21.12-1.02c.29-2.46.12-5.66-1.21-7.26ZM113.16,136.53c-.8.29-1.65.73-1.9.99-2.37,2.44-2.65,5.25-.86,8.35l1.44,2.48-4.08-2.15-.12-.25c-2-4.29-.6-7.58,1.24-10.08-1.51.67-1.92,1.87-2.39,3.22-.23.68-.48,1.38-.87,2l-.81,1.29-.64-1.38c-.67-1.45-.59-3.13.22-4.74.95-1.9,2.73-3.32,4.65-3.73,1.89-.4,4.09.5,5.6,2.28l.77.91-2.24.8ZM161.01,91.55c.3-.43,1-1.05,3.66-1.48,1.35-.22,4.08-.17,6.05.86,2.38,1.25,3.05,2.5,3.24,3.14.22.73.07,1.4-.38,1.79-.25.21-.56.32-.92.32s-.8-.11-1.28-.34c-.35-.17-.68-.33-1-.5-1.35-.68-2.42-1.23-4.43-1.39-.69-.06-1.33-.08-1.89-.1-1.68-.06-3.01-.1-3.25-1.32-.07-.33.01-.68.22-.98ZM136.74,95.12c3.32-3.26,8.25-4.12,10.15-3.84,1.47.21,2.36.61,2.79,1.26.41.62.24,1.26.19,1.47-.25.94-1.39,1.2-3.11,1.61-.93.22-1.99.47-2.91.83-3.08,1.23-4.31,2.11-5.61,3.04-.24.17-.48.35-.74.52-.41.29-.8.57-1.15.83-.98.73-1.78,1.32-2.44,1.32-.28,0-.54-.1-.78-.34-.18-.18-.4-.5-.4-1.01,0-.74.42-2.13,4.03-5.68ZM132.75,120.6c1.08-.7,2.36-1.15,4.04-1.42-1.74-2.48-2-5.61-1.64-7.83,1.06-6.41,5.63-10.55,11.65-10.55,5.57,0,8.89,4.04,8.89,10.8,0,6.18-5.27,11.02-11.99,11.02h-.1s-.16.01-.16.01h-.04c-.93,0-1.87-.06-2.77-.12-.59-.04-1.18-.07-1.78-.09h0l-4.54-.17c-.25,0-.61-.06-1.06-.12l-2.36-.33,1.87-1.21Z" fill="#ffc2a4"></path></g><g><g><path d="M796.04,294.46c-.64-.46-1.3-.88-2.03-1.34l-.78-.5c-.42-.27-.84-.55-1.28-.8-.63-.37-1.31-.71-2.01-1.07l-.94-.49c-.48-.25-.94-.49-1.42-.72-.65-.3-1.33-.58-2.05-.87l-1.17-.48c-.48-.2-.95-.4-1.43-.57-.72-.26-1.49-.49-2.23-.71l-1.29-.4c-.48-.15-.93-.3-1.39-.42-.83-.22-1.73-.4-2.58-.58l-1.28-.28c-.46-.1-.87-.19-1.29-.27-1-.17-2.03-.29-3.13-.41l-1.17-.15c-.37-.05-.7-.1-1.04-.13-1.87-.16-3.73-.24-5.54-.24h-500.18l4.29-4.45c12.53-13,22.25-27.78,28.89-43.91,6.2-14.65,9.92-30.12,11.07-46.02.17-2.36,1.21-4.51,2.93-6.06,1.7-1.53,3.84-2.35,6.07-2.35h446.92c21.49,0,38.32,13.32,38.32,30.32v86.13l-4.26-3.24Z" fill="#dd000d"></path><path d="M802.3,301.73l-7.45-5.67c-.61-.43-1.23-.83-1.92-1.27l-.79-.5c-.45-.29-.83-.53-1.22-.76-.59-.34-1.24-.67-1.91-1.01l-1.06-.55c-.41-.22-.82-.43-1.24-.62-.62-.29-1.27-.55-1.96-.83l-1.18-.48c-.47-.2-.9-.38-1.35-.54-.68-.24-1.42-.47-2.13-.68l-1.3-.4c-.46-.15-.88-.28-1.31-.39-.78-.21-1.65-.38-2.47-.55l-1.3-.28c-.49-.11-.85-.19-1.22-.26-.93-.16-1.94-.27-3-.4l-1.2-.15c-.39-.05-.67-.09-.96-.12-1.81-.15-3.61-.23-5.37-.23h-504.88l7.55-7.84c12.36-12.82,21.94-27.39,28.48-43.28,6.11-14.45,9.79-29.73,10.92-45.41.21-2.87,1.48-5.5,3.59-7.4,2.05-1.85,4.68-2.87,7.41-2.87h446.92c22.61,0,40.32,14.2,40.32,32.32v90.16ZM266.51,282.05h495.47c1.86,0,3.78.08,5.7.24.36.03.72.08,1.11.13l1.19.15c1.1.13,2.16.25,3.21.43.44.08.85.17,1.32.27l1.33.29c.85.17,1.78.36,2.67.6.5.13.98.28,1.49.45l1.27.39c.77.23,1.57.47,2.32.74.52.19,1.01.39,1.53.61l1.15.47c.75.3,1.46.59,2.14.91.48.22.94.46,1.41.71l1.03.54c.71.36,1.42.73,2.08,1.11.45.27.87.54,1.29.81l.85.54c.75.47,1.43.91,2.11,1.4l1.1.84v-82.1c0-15.88-15.95-28.32-36.32-28.32h-446.92c-1.74,0-3.42.65-4.73,1.84-1.34,1.21-2.14,2.88-2.28,4.72-1.17,16.12-4.94,31.82-11.22,46.66-6.73,16.35-16.59,31.33-29.29,44.52l-1.02,1.06Z"></path></g><g><path d="M769.06,284.32l3,.43.24.03c.2.02.4.05.59.08.35.06.7.14,1.05.22l1.53.33c.86.18,1.71.35,2.57.58.4.1.79.23,1.18.35l1.64.51c.69.21,1.4.42,2.11.68.47.17.94.36,1.41.56l1.13.47c.7.28,1.41.57,2.11.89.47.22.92.45,1.37.69l1.01.52c.68.35,1.35.69,2.01,1.08.44.26.87.53,1.29.81l.77.5c.66.42,1.34.85,2,1.32.4.29.79.59,1.18.9l.52.41c.59.46,1.1.86,1.57,1.26l.95.79v3.03c0,13.99-11.28,25.75-28.08,29.27l-3.17.66v-46.36Z" fill="#dd000d"></path><path d="M767.06,333.14v-51.13l5.49.78c.22.03.45.06.68.09.38.07.77.15,1.15.24l1.51.33c.84.17,1.74.36,2.66.6.43.11.85.24,1.27.38l1.63.5c.72.22,1.46.44,2.2.71.5.18,1,.38,1.5.59l1.12.46c.71.28,1.46.59,2.18.92.51.23.98.49,1.47.74l1,.52c.67.34,1.38.7,2.1,1.12.47.27.92.57,1.38.86l.76.49c.63.4,1.36.86,2.09,1.38.43.3.84.63,1.26.96l.51.4c.61.47,1.13.89,1.62,1.3l1.67,1.39v3.97c0,14.96-11.92,27.51-29.67,31.23l-5.58,1.17ZM771.06,286.63v41.59l.76-.16c15.84-3.32,26.49-14.3,26.49-27.32v-2.1l-.23-.19c-.46-.39-.95-.77-1.53-1.22l-.52-.41c-.37-.29-.73-.58-1.11-.85-.63-.45-1.28-.86-1.91-1.26l-.78-.5c-.41-.27-.81-.52-1.22-.77-.63-.37-1.26-.69-1.91-1.02l-1.02-.53c-.43-.23-.85-.45-1.29-.65-.66-.3-1.34-.58-2.01-.85l-1.15-.47c-.45-.19-.88-.37-1.32-.53-.68-.25-1.35-.45-2-.64l-1.67-.52c-.37-.12-.73-.23-1.09-.32-.82-.21-1.65-.39-2.47-.55l-1.55-.33c-.33-.08-.65-.15-.97-.2-.16-.03-.32-.05-.48-.07l-1.01-.14Z"></path></g></g><g><path d="M340.88,237.85h-10.11v13.36h11.85l-1.13,8.29h-20.16v-49.02h20.08v8.34h-10.64v10.74h10.11v8.29ZM320.43,200.23l9.65,7.36h8.31l-6.89-7.36h-11.07Z" fill="#efebcf"></path><path d="M356.27,210.48h12.57c8.14,0,12.18,4.31,12.18,12.99v2.99c0,8.59-3.24,13.77-12.54,13.77h-2.77v19.27h-9.44v-49.02ZM365.71,232.59h1.53c3.58,0,4.33-2,4.33-6.09v-3.38c0-3.17-.74-5.21-3.88-5.21h-1.98v14.68Z" fill="#efebcf"></path><path d="M393.97,238.19v21.31h-9.42v-49.02h12.23c8.22,0,12.28,3.61,12.28,12.18v1.76c0,6.99-2.79,9.06-4.89,10.06,3.05,1.47,4.48,3.71,4.48,10.56,0,4.73-.07,11.89.34,14.47h-9.12c-.61-2.22-.57-8.6-.57-14.86,0-5.52-.63-6.46-4.22-6.46h-1.11ZM393.99,230.76h1.17c3.15,0,4.43-.99,4.43-5.56v-2.37c0-3.29-.66-4.93-4.13-4.93h-1.47v12.85Z" fill="#efebcf"></path><path d="M437.91,223.6v22.74c0,9.73-4.58,13.9-13.15,13.9s-12.31-4.28-12.31-13.8v-23.09c0-9.46,5.2-13.6,12.75-13.6s12.71,4.06,12.71,13.85ZM421.99,222.54v25.06c0,3.03,1.04,4.61,3.15,4.61s3.19-1.43,3.19-4.65v-25.08c0-3.06-.85-4.63-3.22-4.63-2.01,0-3.12,1.45-3.12,4.7Z" fill="#efebcf"></path><path d="M441.97,259.5v-49.02h10.43c1.56,5.98,6.47,28.19,6.86,30.34h.23c-.52-6.52-.86-15.44-.86-22.28v-8.06h8.75v49.02h-10.53c-1.02-4.66-6.38-30.03-6.69-31.6h-.25c.37,5.77.66,15.52.66,23.23v8.37h-8.6Z" fill="#efebcf"></path><path d="M477.65,218.82h-7.14v-8.34h23.74v8.34h-7.19v40.69h-9.41v-40.69Z" fill="#efebcf"></path><path d="M522.36,223.6v22.74c0,9.73-4.58,13.9-13.15,13.9s-12.31-4.28-12.31-13.8v-23.09c0-9.46,5.2-13.6,12.75-13.6s12.71,4.06,12.71,13.85ZM506.43,222.54v25.06c0,3.03,1.04,4.61,3.15,4.61s3.19-1.43,3.19-4.65v-25.08c0-3.06-.85-4.63-3.22-4.63-2.01,0-3.12,1.45-3.12,4.7Z" fill="#efebcf"></path><path d="M527.78,241.59l-.89-23.19-.05-7.92h10.28v7.77l-.89,23.34h-8.46ZM527.34,259.5v-11.53h9.36v11.53h-9.36Z" fill="#efebcf"></path><path d="M560.5,244.39v3.39c0,3.22.8,4.72,2.95,4.72s2.68-2.22,2.68-4.53c0-4.63-.87-5.97-5.87-10.15-5.52-4.68-8.36-7.45-8.36-14.67s2.32-13.46,11.61-13.46c9.86,0,11.32,6.73,11.32,12.34v2.82h-8.9v-2.94c0-2.98-.49-4.45-2.35-4.45-1.74,0-2.3,1.5-2.3,4.27,0,2.95.54,4.41,4.59,7.57,7.21,5.67,9.8,8.85,9.8,16.92s-2.62,14-12.36,14-12.02-5.64-12.02-12.91v-2.94h9.23Z" fill="#efebcf"></path><path d="M588.65,210.48v49.02h-9.41v-49.02h9.41Z" fill="#efebcf"></path><path d="M630,243.88c0-7.59.07-18.35.19-24.36h-.25c-1.02,9.81-3.19,29.67-4.53,39.98h-8c-1.08-10.72-3.2-30.94-4.22-40.1h-.3c.12,5.76.37,16.38.37,24.83v15.27h-8.56v-49.02h13.53c1.28,9.32,2.71,21.56,3.27,28.2h.2c.76-7.1,2.38-17.4,3.89-28.2h13.48v49.02h-9.08v-15.62Z" fill="#efebcf"></path><path d="M653.14,247.84l-1.21,11.67h-9.61l6.93-49.02h14.06l7.1,49.02h-9.81l-1.35-11.67h-6.11ZM658.44,239.52c-.7-6.27-1.67-15.82-2.13-20.51h-.37c-.17,3.42-1.33,14.45-1.98,20.51h4.49Z" fill="#efebcf"></path><path d="M673.58,259.5v-49.02h10.43c1.56,5.98,6.47,28.19,6.86,30.34h.23c-.52-6.52-.86-15.44-.86-22.28v-8.06h8.75v49.02h-10.53c-1.02-4.66-6.38-30.03-6.69-31.6h-.25c.37,5.77.66,15.52.66,23.23v8.37h-8.6Z" fill="#efebcf"></path><path d="M728.18,259.5h-7.09c-.22-.86-.37-2.6-.44-3.63-1.55,3.44-4.7,4.36-7.73,4.36-7.63,0-9.77-5.68-9.77-13.69v-23.07c0-7.52,3.11-13.74,12.47-13.74,11.29,0,12.43,8.21,12.43,13.16v2.21h-9.49v-2.7c0-2.38-.29-4.58-2.91-4.58-2.16,0-2.95,1.58-2.95,4.77v25.13c0,3.34,1.08,4.56,2.95,4.56,2.29,0,3.08-1.78,3.08-5.81v-7.03h-3.24v-7.96h12.71v28.01Z" fill="#efebcf"></path><path d="M741.94,210.48v49.02h-9.41v-49.02h9.41Z" fill="#efebcf"></path><path d="M755.94,247.84l-1.21,11.67h-9.61l6.93-49.02h14.06l7.1,49.02h-9.81l-1.35-11.67h-6.11ZM761.25,239.52c-.7-6.27-1.67-15.82-2.13-20.51h-.37c-.17,3.42-1.33,14.45-1.98,20.51h4.49Z" fill="#efebcf"></path></g><g><path d="M437.1,313.24c-2.98,6.06-5.71,14.99-2.63,13.3,1.99-.99,8.24-8.84,9.53-10.67.45-.3,1.09-.1.99.74-.89,1.84-6.9,10.13-9.23,11.42-1.59.94-5.51.35-5.91-2.73-.15-.99-.05-2.18.35-3.87-2.08,2.83-4.81,5.91-6.45,6.7-.94.5-3.77-.2-4.47-2.23-1.14-3.28,4.32-13.75,8.93-15.83,2.43-1.09,4.86,0,6.21,1.04,2.03-3.92,4.17-8.69,6.75-12.81,1.04-1.29,4.62-1.34,4.02-.35-.74,1.34-2.58,3.72-8.09,15.29ZM432.04,316.12l1.74-3.72c-.84-.74-1.94-1.34-3.23-.79-3.67,1.54-9.83,14.59-7.89,14.69,1.34.1,7.15-6.25,9.38-10.18Z" fill="#dd000d"></path><path d="M449.76,312.7c-.74.99-1.29,1.64-2.98,5.26-2.78,5.81-2.93,9.13-1.59,9.28,1.74.15,5.31-4.22,6.55-6.11.4-.64.99-.35.84.45-1.19,2.88-3.13,6.3-4.67,6.9-2.04.79-4.96-.2-6.06-1.44-1.14-1.29-.84-4.52.94-8.54,1.84-4.07,2.78-5.66,3.52-6.85.94-1.24,4.07.05,3.43,1.04ZM449.96,307.04c-1.19-.15-1.39-1.64-.2-2.38,1.14-.74,3.72-.94,4.72-.25.84.7-.15,1.99-1.14,2.28-.84.3-2.18.6-3.38.35Z" fill="#dd000d"></path><path d="M480.29,326.55s3.82-5.26,8.54-11.17c7.74-9.73,12.16-14.3,13.55-15.59,1.44-1.34,3.37-.25,3.57,1.19-2.58,3.87-11.37,22.19-12.26,27.9-.15.79-.7,4.62.79,4.62.5.45-.1,1.24-1.09,1.09-2.73-.4-3.72-2.93-3.03-6.5,1.59-7.99,7.89-19.31,9.18-22.29-1.24.99-6.45,6.65-9.63,11.12-4.37,6.11-8.94,11.86-9.28,12.86-.84,1.09-4.12,1.49-4.17-.79-.05-2.18,2.58-16.93,2.58-24.67-1.49,2.68-3.92,7.3-6.15,12.01-3.67,7.49-7.4,15.64-7.45,16.68-.89.64-2.58.15-2.08-1.59.89-3.08,5.41-11.96,7.3-15.78,1.59-3.38,6.9-13.95,8.09-16.28,0-.65,3.72-.5,4.17,2.09.45,2.58-2.63,25.12-2.63,25.12Z" fill="#dd000d"></path><path d="M515.36,315.23c.6.65,1.04,1.49.64,1.99-.74.99-1.09,1.74-2.28,4.17-1.29,2.88-1.39,5.61.4,5.36,2.33-.3,8.59-8.44,9.78-10.42.4-.4,1.09-.1,1.14.45-1.04,1.99-5.86,8.98-8.74,10.97-2.43,1.69-4.62.4-6.01-.99-.89-.89-.65-3.72.25-5.56-1.39,2.09-4.96,6.25-7.15,7.35-1.39.65-4.27-.99-4.57-2.73-.4-2.28,1.64-7.35,5.16-11.27,3.67-4.07,6.55-5.26,8.84-5.76,2.58-.55,6.5,2.08,5.86,3.77-.6,1.29-2.53,2.58-3.33,2.68ZM515.01,314.93c.15-.89,1.99-3.62.74-4.32-1.39-.74-6.4,2.23-8.98,5.81-4.22,5.81-5.41,9.93-4.32,10.13,1.84.35,9.18-8.24,11.07-11.66.3-.5.89-.35,1.49.05Z" fill="#dd000d"></path><path d="M533.22,311.16c1.54.4,2.98,1.04,1.34,3.13-2.48,3.28-6.55,12.01-3.97,12.46,1.44.3,8.19-7.84,9.88-10.42.35-.3,1.24-.35,1.14.45-1.09,2.48-5.91,8.64-8.89,10.92-2.03,1.54-5.86.4-6.25-2.48-.65-3.72,3.33-9.98,4.37-11.86.65-1.04-.84-1.14-2.28-1.39-1.24,1.89-3.52,5.26-5.31,7.84-.6.55-1.59.05-1.34-.6.94-1.49,3.87-5.71,4.91-7.64-.3-.15-.5-.35-.55-.65-.55-1.59,1.74-6.01,2.88-6.45.74-.3,2.23.89,2.08,1.84-.15.89-1.34,3.67-2.08,4.82.79,0,3.28-.15,4.07.05Z" fill="#dd000d"></path><path d="M539.31,317.66c.7-.89,4.02-6.8,4.42-9.43.2-1.19,1.94.1,1.69,1.14-.1.35-.2.74-.4,1.14,2.53-.65,6.7-1.54,8.74-.84,1.19.4,2.93,1.94,1.24,3.92-3.03,3.33-13.95,12.76-13.95,12.76,0,0,8.98-2.13,10.37-.4.6.74-.25,1.34-.65,1.14-1.14-1.39-10.62,1.14-12.11,1.74-1.39.6-2.88-2.73-1.99-3.03.89-.3,14.39-11.86,15.73-14.1.89-1.79-5.71-.1-8.39.99-1.19,2.28-2.83,4.76-3.62,5.81-.45.35-1.14-.2-1.09-.84Z" fill="#dd000d"></path><path d="M561.91,312.7c-.3,1.09-1.19,2.08-2.83,5.26-2.78,5.36-3.52,9.13-1.59,8.79,2.63-.5,8.74-8.49,10.03-10.57.69-.4,1.09.2,1.09.6-1.04,2.88-6.25,9.48-8.64,10.92-2.48,1.49-4.72.55-5.86-.65-1.14-1.24-1.24-3.92.99-8.54,1.94-4.02,3.67-5.96,3.82-7.3.6-.79,3.28.15,2.98,1.49ZM561.81,304.21c1.19-.84,3.03-.99,4.02-.15.69.55.25,1.59-.45,2.13-.74.6-2.13.89-3.38.74-1.19-.15-1.44-1.84-.2-2.73Z" fill="#dd000d"></path><path d="M580.1,315.23c.64.65,1.04,1.54.69,1.99-.74.99-1.09,1.74-2.28,4.17-1.29,2.88-1.49,6.25.25,6.25,1.49,0,5.61-4.07,6.6-6.6.3-.79,1.14-.25.99.45-1.14,2.88-3.92,6.65-5.26,7.35-1.99.99-4.96-.3-6.11-1.89-.74-1.04-.89-3.87.55-6.2-1.39,2.08-4.96,6.2-7.15,7.3-1.39.65-4.12-.99-4.47-2.98-.4-2.23,1.19-6.3,5.21-10.97,2.78-3.18,5.81-5.01,8.09-5.51,2.58-.55,6.9,2.28,6.25,3.97-.6,1.29-2.58,2.63-3.37,2.68ZM579.8,314.93c.15-.89,1.99-3.62.74-4.32-1.39-.74-4.81.55-8.98,5.81-3.82,4.82-5.31,9.53-4.22,9.73,1.84.35,8.89-7.99,10.77-11.42.3-.55,1.04-.3,1.69.2Z" fill="#dd000d"></path><path d="M614.2,314.29c3.43-.45,7.2-.89,9.13-.55,1.09.2.15,1.14-.55,1.39-1.94-.45-6.2.6-9.83,1.39-4.02,7.69-6.3,13.95-6.5,15.74-.89.84-3.28-.35-3.23-1.74,0-1.59,3.23-8.24,5.76-13.25-.45.05-.84.05-1.14.05-1.29-.05-1.79-2.48-.45-2.53.45.15,1.49.1,2.88,0l1.44-2.73c1.74-3.18,5.11-9.53,6.8-11.76-.5,0-1.04.05-1.54.05-9.53.5-15.24,3.03-15.39,6.8-2.18.15-2.93-2.88-1.09-4.72,3.43-3.48,11.12-3.57,16.08-3.77,8.09-.3,14.05.6,15.64-.1.55.35.89,1.49-.55,1.74-1.44.25-5.21-.1-10.67-.05.64.45,1.24.45.79,1.49-1.24,1.64-4.07,6.15-7.59,12.56Z" fill="#dd000d"></path><path d="M627.11,321.19c-.35.94-.55,1.84-.6,2.63-.05,1.39.6,2.93,2.23,3.13,4.67.55,10.62-8.09,12.81-10.82.55-.6,1.24-.4,1.29.2-1.59,3.18-6.01,9.58-10.23,11.81-2.93,1.54-7.84.15-9.03-3.18-1.84-5.16,3.92-13.55,8.09-15.54,3.43-1.64,7.25,1.84,6.9,4.02-.4,2.53-7.45,6.11-11.47,7.74ZM627.95,319.15c4.47-2.43,9.78-6.9,7.59-8.09-1.29-.65-5.36,3.67-7.59,8.09Z" fill="#dd000d"></path><path d="M646.85,313.24c-3.38,6.9-6.55,15.09-3.23,13.9,1.79-.65,7.99-8.34,9.68-11.12.64-.74,1.09.25.99.74-.84,2.38-7,10.72-9.43,11.96-1.59.89-5.51,0-5.91-2.73-.3-2.43.99-6.75,5.41-15.09,2.93-5.51,5.91-10.28,5.86-11.52.5-1.24,3.28.1,2.98,1.14-.45,1.44-2.63,5.06-6.35,12.71Z" fill="#dd000d"></path><path d="M658.52,313.24c-3.38,6.9-6.55,15.09-3.23,13.9,1.79-.65,7.99-8.34,9.68-11.12.64-.74,1.09.25.99.74-.84,2.38-7,10.72-9.43,11.96-1.59.89-5.51,0-5.91-2.73-.3-2.43.99-6.75,5.41-15.09,2.93-5.51,5.91-10.28,5.86-11.52.5-1.24,3.28.1,2.98,1.14-.45,1.44-2.63,5.06-6.35,12.71Z" fill="#dd000d"></path><path d="M671.01,312.7c-.74.99-1.29,1.64-2.98,5.26-2.78,5.81-2.93,9.13-1.59,9.28,1.74.15,5.31-4.22,6.55-6.11.4-.64.99-.35.84.45-1.19,2.88-3.13,6.3-4.67,6.9-2.04.79-4.96-.2-6.06-1.44-1.14-1.29-.84-4.52.94-8.54,1.84-4.07,2.78-5.66,3.52-6.85.94-1.24,4.07.05,3.43,1.04ZM671.2,307.04c-1.19-.15-1.39-1.64-.2-2.38,1.14-.74,3.72-.94,4.72-.25.84.7-.15,1.99-1.14,2.28-.84.3-2.18.6-3.38.35Z" fill="#dd000d"></path></g><g><path d="M467.03,151.33h11.19c2.23,0,3.97.48,5.2,1.43,1.23.95,1.85,2.44,1.85,4.48,0,1.34-.23,2.46-.69,3.35-.46.89-1.22,1.57-2.26,2.03-1.04.46-2.41.7-4.09.7h-7.79v-2.56h7.45c.86,0,1.56-.12,2.1-.36.54-.24.94-.61,1.2-1.1s.4-1.17.4-2.01c0-1.16-.28-1.99-.84-2.51-.56-.51-1.46-.77-2.71-.77h-7.22v14.69h-3.77v-17.37Z" fill="#dd000d"></path><path d="M491.26,151.33h3.77v17.37h-3.77v-17.37Z" fill="#dd000d"></path><path d="M500.97,166.61l15.31-14.79.52,2.11h-15.36v-2.61h16.97v2.48l-14.72,14.44-.55-2.03h15.44v2.48h-17.62v-2.08Z" fill="#dd000d"></path><path d="M524.3,166.61l15.31-14.79.52,2.11h-15.36v-2.61h16.97v2.48l-14.72,14.44-.55-2.03h15.44v2.48h-17.62v-2.08Z" fill="#dd000d"></path><path d="M547.87,151.33h16.21v2.93h-12.43v4.14h11.84v2.83h-11.84v4.54h12.43v2.93h-16.21v-17.37Z" fill="#dd000d"></path><path d="M570.61,151.33h11.24c1.55,0,2.84.17,3.86.5,1.02.33,1.78.85,2.3,1.56s.77,1.63.77,2.75-.21,2.03-.62,2.78c-.41.74-1.05,1.3-1.9,1.68s-1.95.55-3.29.53v-.05c1.04.02,1.89.13,2.54.35.65.22,1.19.59,1.61,1.12.42.53.76,1.28,1.03,2.26l1.07,3.9h-3.92l-.94-3.65c-.17-.7-.4-1.24-.71-1.64-.31-.4-.67-.67-1.09-.83-.42-.16-.94-.24-1.55-.24h-6.63v6.35h-3.77v-17.37ZM583.97,159.04c.62-.48.93-1.26.93-2.33,0-.65-.15-1.15-.45-1.51-.3-.36-.71-.61-1.23-.74-.52-.13-1.15-.2-1.9-.2h-6.95v5.51h6.65c1.34,0,2.32-.24,2.94-.72Z" fill="#dd000d"></path><path d="M595.5,151.33h3.77v17.37h-3.77v-17.37ZM598.62,146.24h3.87l-3.8,3.72h-2.85l2.78-3.72Z" fill="#dd000d"></path><path d="M613.22,151.33h4.82l8.26,17.37h-4.02l-6.48-14.82h-.35l-6.48,14.82h-4.07l8.31-17.37ZM610.69,161.8h9.88l.5,2.61h-10.87l.5-2.61Z" fill="#dd000d"></path></g></g></g></svg>